<?xml version="1.0" encoding="UTF-8" standalone="no"?>
<!-- Created with Inkscape (http://www.inkscape.org/) -->

<svg
   width="210mm"
   height="297mm"
   viewBox="0 0 210 297"
   version="1.1"
   id="svg5"
   inkscape:version="1.2.2 (732a01da63, 2022-12-09)"
   sodipodi:docname="kresba.svg"
   xmlns:inkscape="http://www.inkscape.org/namespaces/inkscape"
   xmlns:sodipodi="http://sodipodi.sourceforge.net/DTD/sodipodi-0.dtd"
   xmlns:xlink="http://www.w3.org/1999/xlink"
   xmlns="http://www.w3.org/2000/svg"
   xmlns:svg="http://www.w3.org/2000/svg">
  <sodipodi:namedview
     id="namedview7"
     pagecolor="#ffffff"
     bordercolor="#000000"
     borderopacity="0.25"
     inkscape:showpageshadow="2"
     inkscape:pageopacity="0.0"
     inkscape:pagecheckerboard="0"
     inkscape:deskcolor="#d1d1d1"
     inkscape:document-units="mm"
     showgrid="false"
     inkscape:zoom="0.72515432"
     inkscape:cx="597.11428"
     inkscape:cy="387.50372"
     inkscape:window-width="1920"
     inkscape:window-height="1001"
     inkscape:window-x="-9"
     inkscape:window-y="-9"
     inkscape:window-maximized="1"
     inkscape:current-layer="layer1" />
  <defs
     id="defs2" />
  <g
     inkscape:label="Vrstva 1"
     inkscape:groupmode="layer"
     id="layer1">
    <ellipse
       style="fill:#241c1c;stroke:#aa0000;stroke-width:0.899999"
       id="path2135"
       cx="18.425676"
       cy="25.358107"
       rx="6.3851347"
       ry="5.655405"
       inkscape:tile-cx="18.425676"
       inkscape:tile-cy="25.358106"
       inkscape:tile-w="13.670268"
       inkscape:tile-h="12.210809"
       inkscape:tile-x0="11.590542"
       inkscape:tile-y0="19.252702" />
    <use
       x="0"
       y="0"
       inkscape:tiled-clone-of="#path2135"
       xlink:href="#path2135"
       id="use2137" />
    <use
       x="0"
       y="0"
       inkscape:tiled-clone-of="#path2135"
       xlink:href="#path2135"
       transform="translate(0,12.210809)"
       id="use2139" />
    <use
       x="0"
       y="0"
       inkscape:tiled-clone-of="#path2135"
       xlink:href="#path2135"
       transform="translate(0,36.632426)"
       id="use2143" />
    <use
       x="0"
       y="0"
       inkscape:tiled-clone-of="#path2135"
       xlink:href="#path2135"
       transform="translate(0,48.843235)"
       id="use2145" />
    <use
       x="0"
       y="0"
       inkscape:tiled-clone-of="#path2135"
       xlink:href="#path2135"
       transform="translate(0,61.054044)"
       id="use2147" />
    <use
       x="0"
       y="0"
       inkscape:tiled-clone-of="#path2135"
       xlink:href="#path2135"
       transform="translate(0,73.264853)"
       id="use2149" />
    <use
       x="0"
       y="0"
       inkscape:tiled-clone-of="#path2135"
       xlink:href="#path2135"
       transform="translate(0,85.475662)"
       id="use2151" />
    <use
       x="0"
       y="0"
       inkscape:tiled-clone-of="#path2135"
       xlink:href="#path2135"
       transform="translate(0,97.686471)"
       id="use2153" />
    <use
       x="0"
       y="0"
       inkscape:tiled-clone-of="#path2135"
       xlink:href="#path2135"
       transform="translate(0,122.10809)"
       id="use2157" />
    <use
       x="0"
       y="0"
       inkscape:tiled-clone-of="#path2135"
       xlink:href="#path2135"
       transform="translate(0,134.3189)"
       id="use2159" />
    <use
       x="0"
       y="0"
       inkscape:tiled-clone-of="#path2135"
       xlink:href="#path2135"
       transform="translate(13.670268)"
       id="use2161" />
    <use
       x="0"
       y="0"
       inkscape:tiled-clone-of="#path2135"
       xlink:href="#path2135"
       transform="translate(13.670268,12.210809)"
       id="use2163" />
    <use
       x="0"
       y="0"
       inkscape:tiled-clone-of="#path2135"
       xlink:href="#path2135"
       transform="translate(13.670268,36.632426)"
       id="use2167" />
    <use
       x="0"
       y="0"
       inkscape:tiled-clone-of="#path2135"
       xlink:href="#path2135"
       transform="translate(13.670268,61.054044)"
       id="use2171" />
    <use
       x="0"
       y="0"
       inkscape:tiled-clone-of="#path2135"
       xlink:href="#path2135"
       transform="translate(13.670268,97.686471)"
       id="use2177" />
    <use
       x="0"
       y="0"
       inkscape:tiled-clone-of="#path2135"
       xlink:href="#path2135"
       transform="translate(13.670268,122.10809)"
       id="use2181" />
    <use
       x="0"
       y="0"
       inkscape:tiled-clone-of="#path2135"
       xlink:href="#path2135"
       transform="translate(13.670268,134.3189)"
       id="use2183" />
    <use
       x="0"
       y="0"
       inkscape:tiled-clone-of="#path2135"
       xlink:href="#path2135"
       transform="translate(27.340536,36.632426)"
       id="use2191" />
    <use
       x="0"
       y="0"
       inkscape:tiled-clone-of="#path2135"
       xlink:href="#path2135"
       transform="translate(27.340536,61.054044)"
       id="use2195" />
    <use
       x="0"
       y="0"
       inkscape:tiled-clone-of="#path2135"
       xlink:href="#path2135"
       transform="translate(27.340536,97.686471)"
       id="use2201" />
    <use
       x="0"
       y="0"
       inkscape:tiled-clone-of="#path2135"
       xlink:href="#path2135"
       transform="translate(41.010804)"
       id="use2209" />
    <use
       x="0"
       y="0"
       inkscape:tiled-clone-of="#path2135"
       xlink:href="#path2135"
       transform="translate(41.010804,12.210809)"
       id="use2211" />
    <use
       x="0"
       y="0"
       inkscape:tiled-clone-of="#path2135"
       xlink:href="#path2135"
       transform="translate(41.010804,24.421618)"
       id="use2213" />
    <use
       x="0"
       y="0"
       inkscape:tiled-clone-of="#path2135"
       xlink:href="#path2135"
       transform="translate(41.010804,36.632426)"
       id="use2215" />
    <use
       x="0"
       y="0"
       inkscape:tiled-clone-of="#path2135"
       xlink:href="#path2135"
       transform="translate(41.010804,61.054044)"
       id="use2219" />
    <use
       x="0"
       y="0"
       inkscape:tiled-clone-of="#path2135"
       xlink:href="#path2135"
       transform="translate(41.010804,97.686471)"
       id="use2225" />
    <use
       x="0"
       y="0"
       inkscape:tiled-clone-of="#path2135"
       xlink:href="#path2135"
       transform="translate(41.010804,109.89728)"
       id="use2227" />
    <use
       x="0"
       y="0"
       inkscape:tiled-clone-of="#path2135"
       xlink:href="#path2135"
       transform="translate(41.010804,122.10809)"
       id="use2229" />
    <use
       x="0"
       y="0"
       inkscape:tiled-clone-of="#path2135"
       xlink:href="#path2135"
       transform="translate(41.010804,134.3189)"
       id="use2231" />
    <use
       x="0"
       y="0"
       inkscape:tiled-clone-of="#path2135"
       xlink:href="#path2135"
       transform="translate(54.681072)"
       id="use2233" />
    <use
       x="0"
       y="0"
       inkscape:tiled-clone-of="#path2135"
       xlink:href="#path2135"
       transform="translate(54.681072,61.054044)"
       id="use2243" />
    <use
       x="0"
       y="0"
       inkscape:tiled-clone-of="#path2135"
       xlink:href="#path2135"
       transform="translate(54.681072,134.3189)"
       id="use2255" />
    <use
       x="0"
       y="0"
       inkscape:tiled-clone-of="#path2135"
       xlink:href="#path2135"
       transform="translate(68.351341)"
       id="use2257" />
    <use
       x="0"
       y="0"
       inkscape:tiled-clone-of="#path2135"
       xlink:href="#path2135"
       transform="translate(68.351341,134.3189)"
       id="use2279" />
    <use
       x="0"
       y="0"
       inkscape:tiled-clone-of="#path2135"
       xlink:href="#path2135"
       transform="translate(82.021609)"
       id="use2281" />
    <use
       x="0"
       y="0"
       inkscape:tiled-clone-of="#path2135"
       xlink:href="#path2135"
       transform="translate(82.021609,12.210809)"
       id="use2283" />
    <use
       x="0"
       y="0"
       inkscape:tiled-clone-of="#path2135"
       xlink:href="#path2135"
       transform="translate(82.021609,24.421618)"
       id="use2285" />
    <use
       x="0"
       y="0"
       inkscape:tiled-clone-of="#path2135"
       xlink:href="#path2135"
       transform="translate(82.021609,36.632426)"
       id="use2287" />
    <use
       x="0"
       y="0"
       inkscape:tiled-clone-of="#path2135"
       xlink:href="#path2135"
       transform="translate(82.021609,48.843235)"
       id="use2289" />
    <use
       x="0"
       y="0"
       inkscape:tiled-clone-of="#path2135"
       xlink:href="#path2135"
       transform="translate(82.021609,73.264853)"
       id="use2293" />
    <use
       x="0"
       y="0"
       inkscape:tiled-clone-of="#path2135"
       xlink:href="#path2135"
       transform="translate(82.021609,85.475662)"
       id="use2295" />
    <use
       x="0"
       y="0"
       inkscape:tiled-clone-of="#path2135"
       xlink:href="#path2135"
       transform="translate(82.021609,97.686471)"
       id="use2297" />
    <use
       x="0"
       y="0"
       inkscape:tiled-clone-of="#path2135"
       xlink:href="#path2135"
       transform="translate(82.021609,109.89728)"
       id="use2299" />
    <use
       x="0"
       y="0"
       inkscape:tiled-clone-of="#path2135"
       xlink:href="#path2135"
       transform="translate(82.021609,122.10809)"
       id="use2301" />
    <use
       x="0"
       y="0"
       inkscape:tiled-clone-of="#path2135"
       xlink:href="#path2135"
       transform="translate(82.021609,134.3189)"
       id="use2303" />
    <use
       x="0"
       y="0"
       inkscape:tiled-clone-of="#path2135"
       xlink:href="#path2135"
       transform="translate(95.691877)"
       id="use2305" />
    <use
       x="0"
       y="0"
       inkscape:tiled-clone-of="#path2135"
       xlink:href="#path2135"
       transform="translate(95.691877,61.054044)"
       id="use2315" />
    <use
       x="0"
       y="0"
       inkscape:tiled-clone-of="#path2135"
       xlink:href="#path2135"
       transform="translate(95.691877,134.3189)"
       id="use2327" />
    <use
       x="0"
       y="0"
       inkscape:tiled-clone-of="#path2135"
       xlink:href="#path2135"
       transform="translate(109.36214)"
       id="use2329" />
    <use
       x="0"
       y="0"
       inkscape:tiled-clone-of="#path2135"
       xlink:href="#path2135"
       transform="translate(109.36214,12.210809)"
       id="use2331" />
    <use
       x="0"
       y="0"
       inkscape:tiled-clone-of="#path2135"
       xlink:href="#path2135"
       transform="translate(109.36214,24.421618)"
       id="use2333" />
    <use
       x="0"
       y="0"
       inkscape:tiled-clone-of="#path2135"
       xlink:href="#path2135"
       transform="translate(109.36214,36.632426)"
       id="use2335" />
    <use
       x="0"
       y="0"
       inkscape:tiled-clone-of="#path2135"
       xlink:href="#path2135"
       transform="translate(109.36214,61.054044)"
       id="use2339" />
    <use
       x="0"
       y="0"
       inkscape:tiled-clone-of="#path2135"
       xlink:href="#path2135"
       transform="translate(109.36214,97.686471)"
       id="use2345" />
    <use
       x="0"
       y="0"
       inkscape:tiled-clone-of="#path2135"
       xlink:href="#path2135"
       transform="translate(109.36214,109.89728)"
       id="use2347" />
    <use
       x="0"
       y="0"
       inkscape:tiled-clone-of="#path2135"
       xlink:href="#path2135"
       transform="translate(109.36214,122.10809)"
       id="use2349" />
    <use
       x="0"
       y="0"
       inkscape:tiled-clone-of="#path2135"
       xlink:href="#path2135"
       transform="translate(109.36214,134.3189)"
       id="use2351" />
    <use
       x="0"
       y="0"
       inkscape:tiled-clone-of="#path2135"
       xlink:href="#path2135"
       transform="translate(123.03241,36.632426)"
       id="use2359" />
    <use
       x="0"
       y="0"
       inkscape:tiled-clone-of="#path2135"
       xlink:href="#path2135"
       transform="translate(123.03241,61.054044)"
       id="use2363" />
    <use
       x="0"
       y="0"
       inkscape:tiled-clone-of="#path2135"
       xlink:href="#path2135"
       transform="translate(123.03241,97.686471)"
       id="use2369" />
    <use
       x="0"
       y="0"
       inkscape:tiled-clone-of="#path2135"
       xlink:href="#path2135"
       transform="translate(136.70268)"
       id="use2377" />
    <use
       x="0"
       y="0"
       inkscape:tiled-clone-of="#path2135"
       xlink:href="#path2135"
       transform="translate(136.70268,12.210809)"
       id="use2379" />
    <use
       x="0"
       y="0"
       inkscape:tiled-clone-of="#path2135"
       xlink:href="#path2135"
       transform="translate(136.70268,36.632426)"
       id="use2383" />
    <use
       x="0"
       y="0"
       inkscape:tiled-clone-of="#path2135"
       xlink:href="#path2135"
       transform="translate(136.70268,61.054044)"
       id="use2387" />
    <use
       x="0"
       y="0"
       inkscape:tiled-clone-of="#path2135"
       xlink:href="#path2135"
       transform="translate(136.70268,97.686471)"
       id="use2393" />
    <use
       x="0"
       y="0"
       inkscape:tiled-clone-of="#path2135"
       xlink:href="#path2135"
       transform="translate(136.70268,122.10809)"
       id="use2397" />
    <use
       x="0"
       y="0"
       inkscape:tiled-clone-of="#path2135"
       xlink:href="#path2135"
       transform="translate(136.70268,134.3189)"
       id="use2399" />
    <use
       x="0"
       y="0"
       inkscape:tiled-clone-of="#path2135"
       xlink:href="#path2135"
       transform="translate(150.37295)"
       id="use2401" />
    <use
       x="0"
       y="0"
       inkscape:tiled-clone-of="#path2135"
       xlink:href="#path2135"
       transform="translate(150.37295,12.210809)"
       id="use2403" />
    <use
       x="0"
       y="0"
       inkscape:tiled-clone-of="#path2135"
       xlink:href="#path2135"
       transform="translate(150.37295,36.632426)"
       id="use2407" />
    <use
       x="0"
       y="0"
       inkscape:tiled-clone-of="#path2135"
       xlink:href="#path2135"
       transform="translate(150.37295,48.843235)"
       id="use2409" />
    <use
       x="0"
       y="0"
       inkscape:tiled-clone-of="#path2135"
       xlink:href="#path2135"
       transform="translate(150.37295,61.054044)"
       id="use2411" />
    <use
       x="0"
       y="0"
       inkscape:tiled-clone-of="#path2135"
       xlink:href="#path2135"
       transform="translate(150.37295,73.264853)"
       id="use2413" />
    <use
       x="0"
       y="0"
       inkscape:tiled-clone-of="#path2135"
       xlink:href="#path2135"
       transform="translate(150.37295,85.475662)"
       id="use2415" />
    <use
       x="0"
       y="0"
       inkscape:tiled-clone-of="#path2135"
       xlink:href="#path2135"
       transform="translate(150.37295,97.686471)"
       id="use2417" />
    <use
       x="0"
       y="0"
       inkscape:tiled-clone-of="#path2135"
       xlink:href="#path2135"
       transform="translate(150.37295,122.10809)"
       id="use2421" />
    <use
       x="0"
       y="0"
       inkscape:tiled-clone-of="#path2135"
       xlink:href="#path2135"
       transform="translate(150.37295,134.3189)"
       id="use2423" />
    <use
       x="0"
       y="0"
       inkscape:tiled-clone-of="#path2135"
       xlink:href="#path2135"
       transform="translate(68.181072,60.689179)"
       id="use2425" />
    <path
       style="fill:#241c1c;stroke:#00ff00;stroke-width:4.69083"
       d="m 111.3841,619.91795 c -19.65103,-8.92053 -12.214149,-35.11632 9.96938,-35.11632 16.54469,0 26.49087,14.93647 18.58308,27.90677 -3.09397,5.0747 -12.10999,9.85712 -18.58308,9.85712 -2.27538,0 -6.7616,-1.19141 -9.96938,-2.64757 z"
       id="path2565"
       transform="scale(0.26458333)" />
    <path
       style="fill:#241c1c;stroke:#00ff00;stroke-width:4.69083"
       d="m 109.49422,572.79713 c -10.021159,-5.81189 -12.698569,-17.88544 -5.78759,-26.09867 12.35067,-14.67794 36.93888,-8.69739 38.67855,9.40772 0.5526,5.75095 0.12751,7.26676 -3.1204,11.12667 -2.06808,2.45777 -5.51709,5.37723 -7.66446,6.48767 -5.6939,2.94444 -16.19319,2.50587 -22.1061,-0.92339 z"
       id="path2567"
       transform="scale(0.26458333)" />
    <path
       style="fill:#241c1c;stroke:#00ff00;stroke-width:4.69083"
       d="m 113.81664,571.17988 c -5.18947,-1.78738 -11.08313,-9.19322 -11.07473,-13.91627 0.0157,-8.85715 12.45466,-17.33215 22.63548,-15.42221 6.22198,1.16725 12.63189,7.61013 13.80793,13.87896 1.136,6.05541 -2.39437,11.70093 -9.39424,15.02259 -5.4985,2.60921 -9.36074,2.71485 -15.97444,0.43693 z"
       id="path2569"
       transform="scale(0.26458333)" />
    <path
       style="fill:#241c1c;stroke:#00ff00;stroke-width:4.69083"
       d="m 115.24593,567.80803 c -6.25306,-3.18851 -10.31622,-8.80091 -9.11394,-12.58897 1.4395,-4.53546 9.65429,-10.0699 15.17925,-10.22651 8.90665,-0.25247 16.03395,7.98661 13.98185,16.16284 -0.66065,2.63222 -2.64731,4.50717 -6.74844,6.36895 -7.16238,3.2515 -7.46579,3.25797 -13.29872,0.28369 z"
       id="path2571"
       transform="scale(0.26458333)" />
    <path
       style="fill:#241c1c;stroke:#00ff00;stroke-width:4.69083"
       d="m 117.1404,565.08367 c -8.68079,-4.38402 -9.78031,-9.77946 -2.86399,-14.05398 5.8219,-3.59813 10.54611,-3.65072 14.2939,-0.15912 4.27659,3.98425 5.16844,8.05978 2.4267,11.08938 -3.8522,4.25663 -9.21811,5.46628 -13.85661,3.12372 z"
       id="path2573"
       transform="scale(0.26458333)" />
    <path
       style="fill:#241c1c;stroke:#00ff00;stroke-width:4.69083"
       d="m 110.00508,574.4104 c -11.814046,-5.36296 -15.167352,-19.11256 -6.94512,-28.47717 11.14681,-12.69551 28.58543,-11.72129 37.91169,2.11795 4.62361,6.86097 4.19746,13.97183 -1.20615,20.12621 -2.38797,2.71974 -6.0805,5.84412 -8.20562,6.94306 -5.32946,2.75598 -14.59161,2.45086 -21.5548,-0.71005 z m 17.60909,-12.22838 c 3.73971,-3.02824 2.94908,-8.91898 -1.51794,-11.30966 -6.19293,-3.31435 -17.17127,3.81844 -13.30817,8.64652 4.28911,5.36052 10.18674,6.41987 14.82611,2.66314 z"
       id="path2575"
       transform="scale(0.26458333)" />
    <path
       style="fill:#241c1c;stroke:#00ff00;stroke-width:4.69083"
       d=""
       id="path2577"
       transform="scale(0.26458333)" />
    <path
       style="fill:#241c1c;stroke:#00ff00;stroke-width:4.69083"
       d=""
       id="path2579"
       transform="scale(0.26458333)" />
    <path
       style="fill:#241c1c;stroke:#00ff00;stroke-width:4.69083"
       d=""
       id="path2581"
       transform="scale(0.26458333)" />
    <path
       style="fill:#241c1c;stroke:#00ff00;stroke-width:4.69083"
       d=""
       id="path2583"
       transform="scale(0.26458333)" />
    <path
       style="fill:#241c1c;stroke:#00ff00;stroke-width:4.69083"
       d=""
       id="path2585"
       transform="scale(0.26458333)" />
    <path
       style="fill:#241c1c;stroke:#00ff00;stroke-width:4.69083"
       d=""
       id="path2587"
       transform="scale(0.26458333)" />
    <path
       style="fill:#241c1c;stroke:#00ff00;stroke-width:4.69083"
       d=""
       id="path2589"
       transform="scale(0.26458333)" />
    <path
       style="fill:#241c1c;stroke:#00ff00;stroke-width:4.69083"
       d="m 115.83741,618.34851 c -13.02599,-4.00127 -16.727293,-16.61202 -7.47687,-25.47449 3.76006,-3.60236 5.15671,-4.03384 13.05697,-4.03384 8.14007,0 9.20406,0.35752 13.32352,4.47698 3.54316,3.54316 4.47698,5.61649 4.47698,9.94004 0,6.6658 -5.53344,13.16989 -12.95958,15.23288 -5.5512,1.54212 -4.91154,1.55081 -10.42102,-0.14157 z"
       id="path2591"
       transform="scale(0.26458333)" />
    <path
       style="fill:#241c1c;stroke:#00ff00;stroke-width:4.69083"
       d="m 117.38095,615.61377 c -10.16343,-2.86458 -13.85714,-13.20633 -7.12229,-19.94119 4.89952,-4.89952 17.29012,-4.89952 22.18964,0 4.02032,4.02032 4.43966,10.21885 0.97158,14.36135 -3.54465,4.23395 -11.27385,6.92289 -16.03893,5.57984 z"
       id="path2593"
       transform="scale(0.26458333)" />
    <path
       style="fill:#241c1c;stroke:#00ff00;stroke-width:4.69083"
       d="m 113.41642,609.71702 c -4.75838,-4.40992 -4.80622,-8.1514 -0.15107,-11.81314 5.0443,-3.96785 12.15848,-3.7397 16.42491,0.52673 4.22709,4.22709 4.25513,6.34894 0.13506,10.21954 -5.158,4.84569 -11.86121,5.28152 -16.4089,1.06687 z"
       id="path2595"
       transform="scale(0.26458333)" />
    <path
       style="fill:#241c1c;stroke:#00ff00;stroke-width:4.69083"
       d=""
       id="path2597"
       transform="scale(0.26458333)" />
    <path
       style="fill:#241c1c;stroke:#00ff00;stroke-width:4.69083"
       d=""
       id="path2599"
       transform="scale(0.26458333)" />
    <path
       style="fill:#241c1c;stroke:#00ff00;stroke-width:4.69083"
       d=""
       id="path2601"
       transform="scale(0.26458333)" />
    <path
       style="fill:#241c1c;stroke:#00ff00;stroke-width:4.69083"
       d=""
       id="path2603"
       transform="scale(0.26458333)" />
    <path
       style="fill:#241c1c;stroke:#00ff00;stroke-width:4.69083"
       d=""
       id="path2605"
       transform="scale(0.26458333)" />
    <path
       style="fill:#241c1c;stroke:#00ff00;stroke-width:4.69083"
       d=""
       id="path2607"
       transform="scale(0.26458333)" />
    <path
       style="fill:#241c1c;stroke:#00ff00;stroke-width:4.69083"
       d="m 58.625618,619.48893 c -6.379152,-3.37337 -11.049538,-10.2581 -11.049538,-16.28838 0,-4.85823 5.159215,-12.21566 10.928791,-15.58527 13.532656,-7.9035 32.522407,1.53254 32.502326,16.15045 -0.0098,7.16184 -3.602342,12.35989 -11.114856,16.08229 -7.31793,3.62597 -13.94238,3.51412 -21.266723,-0.35909 z"
       id="path2609"
       transform="scale(0.26458333)" />
    <path
       style="fill:#241c1c;stroke:#00ff00;stroke-width:4.69083"
       d="m 61.739493,617.15992 c -5.951312,-2.70158 -11.390668,-9.55612 -11.400224,-14.36627 -0.0028,-1.4271 2.782913,-5.3828 6.190553,-8.79044 6.137469,-6.13746 6.269232,-6.18961 14.017371,-5.54707 6.842897,0.56747 8.397207,1.27666 12.42102,5.6674 7.895436,8.61541 5.624502,18.01672 -5.581237,23.10543 -7.081558,3.21585 -8.424225,3.20992 -15.647483,-0.069 z"
       id="path2611"
       transform="scale(0.26458333)" />
    <path
       style="fill:#241c1c;stroke:#00ff00;stroke-width:4.69083"
       d="m 64.745423,615.174 c -3.934778,-1.71734 -11.653276,-9.45871 -11.653276,-11.68781 0,-1.98383 11.512493,-12.57731 13.660268,-12.5698 6.26126,0.0219 12.520864,3.08165 15.211774,7.43563 1.56494,2.53213 2.845345,5.55231 2.845345,6.71152 0,2.15016 -8.756728,10.66747 -10.967333,10.66747 -0.670035,0 -2.044696,0.28765 -3.054804,0.63922 -1.010106,0.35158 -3.728994,-0.18673 -6.041974,-1.19623 z"
       id="path2613"
       transform="scale(0.26458333)" />
    <path
       style="fill:#241c1c;stroke:#00ff00;stroke-width:4.69083"
       d=""
       id="path2615"
       transform="scale(0.26458333)" />
    <path
       style="fill:#241c1c;stroke:#00ff00;stroke-width:4.69083"
       d=""
       id="path2617"
       transform="scale(0.26458333)" />
    <path
       style="fill:#241c1c;stroke:#00ff00;stroke-width:4.69083"
       d=""
       id="path2619"
       transform="scale(0.26458333)" />
    <path
       style="fill:#241c1c;stroke:#00ff00;stroke-width:4.69083"
       d="m 57.648879,573.04217 c -12.9089,-7.87106 -12.795586,-23.50463 0.225675,-31.13559 18.855501,-11.05006 41.689184,7.80672 30.370624,25.08103 -5.65374,8.62869 -21.297534,11.72437 -30.596299,6.05456 z"
       id="path2621"
       transform="scale(0.26458333)" />
    <path
       style="fill:#241c1c;stroke:#00ff00;stroke-width:4.69083"
       d="m 60.67674,570.8355 c -9.470521,-4.87367 -11.872023,-14.8712 -5.415397,-22.54447 10.046786,-11.93992 32.306225,-5.71935 32.306225,9.02823 0,6.81719 -2.137385,9.9978 -8.730117,12.99114 -7.006473,3.1812 -12.680588,3.34526 -18.160711,0.5251 z"
       id="path2623"
       transform="scale(0.26458333)" />
    <path
       style="fill:#241c1c;stroke:#00ff00;stroke-width:4.69083"
       d="m 61.682881,567.5139 c -6.196715,-3.8475 -8.099959,-8.365 -5.831501,-13.84154 4.76119,-11.49453 25.657759,-10.50538 28.258925,1.33765 2.325469,10.58779 -12.342482,18.76557 -22.427424,12.50389 z"
       id="path2625"
       transform="scale(0.26458333)" />
    <path
       style="fill:#241c1c;stroke:#00ff00;stroke-width:4.69083"
       d=""
       id="path2627"
       transform="scale(0.26458333)" />
    <path
       style="fill:#241c1c;stroke:#00ff00;stroke-width:4.69083"
       d=""
       id="path2629"
       transform="scale(0.26458333)" />
    <path
       style="fill:#241c1c;stroke:#00ff00;stroke-width:4.69083"
       d=""
       id="path2631"
       transform="scale(0.26458333)" />
    <path
       style="fill:#241c1c;stroke:#00ff00;stroke-width:4.69083"
       d=""
       id="path2633"
       transform="scale(0.26458333)" />
    <path
       style="fill:#241c1c;stroke:#00ff00;stroke-width:4.69083"
       d=""
       id="path2635"
       transform="scale(0.26458333)" />
    <path
       style="fill:#241c1c;stroke:#00ff00;stroke-width:4.69083"
       d="m 367.84013,572.98893 c -13.46443,-8.20936 -12.82597,-24.64744 1.23594,-31.82129 18.64481,-9.51187 40.3792,9.99455 28.97737,26.00694 -5.99423,8.41813 -21.15693,11.3361 -30.21331,5.81435 z"
       id="path2637"
       transform="scale(0.26458333)" />
    <path
       style="fill:#241c1c;stroke:#00ff00;stroke-width:4.69083"
       d="m 370.2445,570.45126 c -5.73162,-3.01814 -10.04102,-10.49403 -8.87545,-15.39699 1.19449,-5.0246 7.32376,-10.86325 13.27612,-12.64662 10.41617,-3.12076 23.18156,5.44421 23.19603,15.56343 0.0104,7.30751 -9.7057,15.01041 -18.93355,15.01041 -2.12196,0 -6.02038,-1.13861 -8.66315,-2.53023 z"
       id="path2639"
       transform="scale(0.26458333)" />
    <path
       style="fill:#241c1c;stroke:#00ff00;stroke-width:4.69083"
       d="m 368.9044,527.0948 c -16.34784,-8.64494 -13.11524,-29.08409 5.38785,-34.06645 15.11849,-4.07099 31.15747,9.94889 26.23724,22.9343 -4.79957,12.66696 -19.16223,17.72267 -31.62509,11.13215 z"
       id="path2641"
       transform="scale(0.26458333)" />
    <path
       style="fill:#241c1c;stroke:#00ff00;stroke-width:4.69083"
       d="m 373.54573,568.24191 c -9.31496,-4.05409 -11.33109,-12.4708 -4.51289,-18.83994 7.43255,-6.94305 19.88425,-4.68104 24.80066,4.50534 2.29672,4.29148 -0.94346,10.45846 -7.16176,13.63079 -6.15544,3.14028 -7.37729,3.20579 -13.12601,0.70381 z"
       id="path2643"
       transform="scale(0.26458333)" />
    <path
       style="fill:#241c1c;stroke:#00ff00;stroke-width:4.69083"
       d="m 374.8564,565.45514 c -6.5111,-2.83228 -8.31273,-7.06983 -4.93496,-11.60734 4.20503,-5.64882 9.21237,-6.82092 15.26982,-3.57432 6.97334,3.73748 7.13099,9.48793 0.38476,14.03422 -5.43177,3.66047 -5.03908,3.61844 -10.71962,1.14744 z"
       id="path2645"
       transform="scale(0.26458333)" />
    <path
       style="fill:#241c1c;stroke:#00ff00;stroke-width:4.69083"
       d="m 373.68694,561.41091 c -2.20217,-1.61027 -2.37357,-2.46332 -1.06983,-5.3247 1.78883,-3.92606 5.37918,-5.25167 9.7973,-3.6173 4.25891,1.57548 5.19957,4.932 2.2848,8.15279 -2.86974,3.17102 -7.31889,3.48987 -11.01227,0.78921 z"
       id="path2647"
       transform="scale(0.26458333)" />
    <path
       style="fill:#241c1c;stroke:#00ff00;stroke-width:4.69083"
       d="m 376.47159,559.19132 c -1.27325,-2.06017 0.49834,-4.13705 3.52893,-4.13705 3.21023,0 3.58025,3.49522 0.49533,4.67902 -2.86062,1.09772 -3.02452,1.07565 -4.02426,-0.54197 z"
       id="path2649"
       transform="scale(0.26458333)" />
    <path
       style="fill:#241c1c;stroke:#00ff00;stroke-width:4.69083"
       d="m 373.71356,525.41732 c -12.06538,-4.3035 -15.81803,-16.45353 -7.48581,-24.23699 7.76659,-7.25508 19.38385,-7.08802 27.09889,0.38969 12.26379,11.88653 -2.57223,29.92546 -19.61308,23.8473 z"
       id="path2651"
       transform="scale(0.26458333)" />
    <path
       style="fill:#241c1c;stroke:#00ff00;stroke-width:4.69083"
       d="m 373.55927,521.98535 c -3.6819,-1.48765 -8.80932,-7.92486 -8.80932,-11.05962 0,-4.00399 5.37214,-9.49929 10.90772,-11.15779 10.50066,-3.14607 21.69082,6.50905 17.96603,15.50148 -2.7905,6.73687 -12.20963,9.88962 -20.06443,6.71593 z"
       id="path2653"
       transform="scale(0.26458333)" />
    <path
       style="fill:#241c1c;stroke:#00ff00;stroke-width:4.69083"
       d=""
       id="path2655"
       transform="scale(0.26458333)" />
    <path
       style="fill:#241c1c;stroke:#00ff00;stroke-width:4.69083"
       d=""
       id="path2657"
       transform="scale(0.26458333)" />
    <path
       style="fill:#241c1c;stroke:#00ff00;stroke-width:4.69083"
       d=""
       id="path2659"
       transform="scale(0.26458333)" />
    <path
       style="fill:#241c1c;stroke:#00ff00;stroke-width:4.69083"
       d=""
       id="path2661"
       transform="scale(0.26458333)" />
    <path
       style="fill:#241c1c;stroke:#00ff00;stroke-width:4.69083"
       d="m 374.73594,518.80744 c -1.71307,-0.98224 -4.08442,-3.17041 -5.26968,-4.86259 -2.00335,-2.86019 -1.92973,-3.34154 1.04615,-6.84021 2.75525,-3.23928 4.06519,-3.70211 9.40423,-3.32273 6.99485,0.49702 11.03463,3.36481 11.03463,7.83333 0,6.24117 -10.07803,10.71121 -16.21533,7.1922 z"
       id="path2663"
       transform="scale(0.26458333)" />
    <path
       style="fill:#241c1c;stroke:#00ff00;stroke-width:4.69083"
       d="m 369.2183,528.70109 c -19.15489,-9.4815 -14.90179,-32.47727 6.9602,-37.63263 9.5154,-2.24387 23.0522,5.98871 25.99437,15.80881 1.42929,4.77054 1.24109,6.05128 -1.74057,11.84521 -6.01199,11.68243 -19.23315,15.90903 -31.214,9.97861 z m 17.83208,-13.16253 c 3.34164,-3.02414 3.18184,-5.37319 -0.543,-7.98218 -5.75358,-4.02996 -16.24137,-1.63811 -16.24137,3.70402 0,5.8349 11.75375,8.83081 16.78437,4.27816 z m -0.23616,-12.88693 c -1.13769,-0.73523 -4.55076,-1.25308 -7.5846,-1.15078 l -5.51606,0.186 6.20557,0.96478 c 3.41307,0.53063 6.82613,1.04848 7.58459,1.15078 0.75846,0.1023 0.44818,-0.41555 -0.6895,-1.15078 z"
       id="path2665"
       transform="scale(0.26458333)" />
    <path
       style="fill:#241c1c;stroke:#00ff00;stroke-width:4.69083"
       d="m 375.02517,513.11549 c -2.58288,-1.88864 -2.55849,-1.99494 0.80978,-3.52962 2.59713,-1.18333 4.5062,-1.18793 7.57081,-0.0182 3.94031,1.50394 3.99498,1.63973 1.42111,3.52962 -3.38811,2.48776 -6.41671,2.49339 -9.8017,0.0182 z"
       id="path2667"
       transform="scale(0.26458333)" />
    <path
       style="fill:#241c1c;stroke:#00ff00;stroke-width:4.69083"
       d="m 373.33883,517.50337 c -4.60917,-2.22133 -5.59511,-7.8329 -1.90169,-10.82365 1.63126,-1.32091 2.96592,-3.38816 2.96592,-4.59389 0,-1.59377 1.34238,-2.19224 4.91722,-2.19224 6.68492,0 10.60113,2.24353 9.57264,5.484 -0.44653,1.4069 -0.16608,2.95712 0.62324,3.44495 4.40194,2.72055 -2.21221,10.4301 -8.82279,10.28396 -2.32198,-0.0513 -5.63152,-0.77274 -7.35454,-1.60313 z m 8.64883,-5.19862 c 0.46875,-0.75846 -0.46209,-1.37902 -2.06853,-1.37902 -1.60644,0 -2.53728,0.62056 -2.06852,1.37902 0.46875,0.75845 1.39959,1.37901 2.06852,1.37901 0.66894,0 1.59977,-0.62056 2.06853,-1.37901 z"
       id="path2669"
       transform="scale(0.26458333)" />
    <path
       style="fill:#241c1c;stroke:#00ff00;stroke-width:4.69083"
       d="m 385.4352,511.53385 c 0,-1.18245 0.63068,-1.76013 1.40151,-1.28373 0.77083,0.4764 1.04449,1.44386 0.60812,2.14991 -1.18215,1.91276 -2.00963,1.5561 -2.00963,-0.86618 z"
       id="path2671"
       transform="scale(0.26458333)" />
    <path
       style="fill:#241c1c;stroke:#00ff00;stroke-width:4.69083"
       d="m 373.04695,518.80544 c -5.76881,-2.91882 -6.42324,-7.66111 -1.99131,-14.43004 3.37398,-5.15312 4.45538,-5.86082 8.95568,-5.86082 6.51803,0 10.55209,3.42123 11.69859,9.92142 0.75836,4.29956 0.34854,5.64496 -2.62536,8.61886 -3.93243,3.93243 -10.34247,4.63212 -16.0376,1.75058 z m 11.00923,-2.36364 c 2.19175,-1.41642 1.16703,-1.82909 -3.61576,-1.45611 -3.46724,0.27039 -5.57529,-3.79465 -2.56656,-4.94921 1.1249,-0.43167 2.90049,-0.45667 3.94576,-0.0556 1.04526,0.4011 2.59666,0.0331 3.44754,-0.81777 2.24224,-2.24224 1.89695,-6.08218 -0.63426,-7.05349 -3.54117,-1.35888 -8.85082,-0.95741 -8.85082,0.66921 0,0.82844 -1.22745,3.06672 -2.72768,4.97394 -4.19105,5.32807 -1.56373,8.75701 7.55424,9.85909 0.75846,0.0917 2.30985,-0.43487 3.44754,-1.1701 z m 3.44754,-4.13705 c 0.46876,-0.75846 0.1951,-1.37902 -0.60812,-1.37902 -0.80322,0 -1.4604,0.62056 -1.4604,1.37902 0,0.75845 0.27365,1.37901 0.60812,1.37901 0.33447,0 0.99165,-0.62056 1.4604,-1.37901 z"
       id="path2673"
       transform="scale(0.26458333)" />
    <path
       style="fill:#241c1c;stroke:#00ff00;stroke-width:4.69083"
       d="m 371.22301,519.16386 c -4.85441,-3.81848 -5.65481,-7.27407 -2.93028,-12.65101 3.82355,-7.54592 6.12089,-9.37729 11.76323,-9.37729 6.83911,0 12.09815,4.51389 13.18044,11.31292 0.70246,4.41288 0.24178,5.67856 -3.38802,9.30836 -5.16463,5.16463 -13.08745,5.76315 -18.62537,1.40702 z m 9.38244,-10.99616 c 3.9462,0 5.9366,-2.58914 3.28265,-4.27012 -3.45727,-2.1898 -6.00766,-1.28093 -8.45077,3.01157 -2.99032,5.25393 -3.19031,8.49765 -0.26656,4.32342 1.19769,-1.70994 3.60027,-3.06487 5.43468,-3.06487 z m 1.38221,4.13705 c -0.46876,-0.75846 -1.43622,-1.37902 -2.14991,-1.37902 -0.7137,0 -1.29764,0.62056 -1.29764,1.37902 0,0.75845 0.96747,1.37901 2.14992,1.37901 1.18245,0 1.76638,-0.62056 1.29763,-1.37901 z m 6.92806,-1.48295 c 0.4996,-1.57407 0.54142,-3.22889 0.0929,-3.67737 -0.44848,-0.44848 -0.81542,0.21884 -0.81542,1.48294 0,1.2641 -0.62055,2.29836 -1.37901,2.29836 -0.75846,0 -1.37902,0.62056 -1.37902,1.37902 0,2.51609 2.55707,1.4266 3.48052,-1.48295 z"
       id="path2675"
       transform="scale(0.26458333)" />
    <path
       style="fill:#241c1c;stroke:#00ff00;stroke-width:4.69083"
       d="m 371.34703,520.94062 c -7.73011,-4.79396 -7.86864,-11.90947 -0.40457,-20.78001 2.99957,-3.56478 4.72946,-4.40407 9.0775,-4.40407 7.09188,0 13.46154,5.54869 14.60124,12.71932 0.72402,4.55532 0.26736,5.68346 -4.04705,9.99787 -3.90483,3.90483 -5.90937,4.85592 -10.17236,4.82646 -2.92007,-0.0202 -6.99471,-1.08199 -9.05476,-2.35957 z m 17.95119,-5.30089 c 1.74543,-2.00927 2.78486,-4.04186 2.30984,-4.51687 -0.47501,-0.47502 -1.44516,0.17542 -2.15588,1.44542 -1.40008,2.5018 -9.04386,3.06228 -11.82356,0.86696 -0.99124,-0.78286 -1.94136,-0.71371 -2.49466,0.18156 -0.49152,0.79529 -1.4776,1.44598 -2.1913,1.44598 -2.18231,0 -1.45086,-4.25308 1.57288,-9.14559 3.1937,-5.16753 7.13709,-5.99923 11.16428,-2.35467 2.95474,2.674 5.06878,1.47863 2.61464,-1.47843 -2.34592,-2.82666 -9.05936,-4.03849 -12.41722,-2.24142 -3.25595,1.74253 -6.99024,8.30991 -6.99024,12.2935 0,1.49954 1.70634,4.06864 3.79186,5.70911 4.93143,3.87906 12.16797,2.9187 16.61936,-2.20555 z m -6.62105,-10.23007 c 0,-0.75846 -0.58394,-1.37902 -1.29764,-1.37902 -0.71369,0 -1.68115,0.62056 -2.14991,1.37902 -0.46875,0.75846 0.11518,1.37902 1.29763,1.37902 1.18246,0 2.14992,-0.62056 2.14992,-1.37902 z"
       id="path2677"
       transform="scale(0.26458333)" />
    <path
       style="fill:#241c1c;stroke:#00ff00;stroke-width:4.69083"
       d="m 370.5764,521.95207 c -8.7063,-5.30822 -8.70628,-14.08562 5e-5,-23.06827 3.43085,-3.53974 5.49709,-4.50627 9.63345,-4.50627 7.36921,0 14.75812,6.79953 15.79577,14.53582 0.6932,5.16819 0.33814,5.9401 -4.91562,10.68655 -6.6597,6.01664 -13.26176,6.77366 -20.51365,2.35217 z m 10.06529,-5.5929 c -2.53789,-0.75728 -4.61654,-0.71205 -5.44712,0.11852 -0.87147,0.87148 0.56966,1.3015 4.104,1.22459 5.38324,-0.11714 5.39899,-0.1329 1.34312,-1.34312 z m 6.99838,-4.90106 c 5.71204,-2.71054 6.23228,-5.85037 0.89792,-5.41915 -2.08577,0.16861 -4.72314,0.69707 -5.86082,1.17434 -1.13769,0.47728 -3.24286,0.73213 -4.67814,0.56633 -4.19147,-0.48417 -4.09552,2.73842 0.12738,4.27834 2.12368,0.77443 4.07774,1.45704 4.34234,1.51692 0.26461,0.0599 2.5917,-0.89267 5.17132,-2.11678 z"
       id="path2679"
       transform="scale(0.26458333)" />
    <path
       style="fill:#241c1c;stroke:#00ff00;stroke-width:4.69083"
       d=""
       id="path2681"
       transform="scale(0.26458333)" />
    <path
       style="fill:#241c1c;stroke:#00ff00;stroke-width:4.69083"
       d="m 369.51946,530.39791 c -20.75488,-9.42763 -17.64905,-33.42486 5.22836,-40.397 14.18806,-4.32397 33.25474,12.34391 28.78561,25.16405 -2.4358,6.98735 -7.20348,12.50353 -13.13524,15.19741 -7.15097,3.24758 -13.7826,3.25887 -20.87873,0.0355 z m 22.12131,-4.32353 c 12.11105,-7.45623 11.4851,-23.80219 -1.17085,-30.57544 -1.98903,-1.0645 -1.51117,-0.14374 1.47534,2.84277 4.56969,4.56969 6.82386,11.64122 5.27073,16.5347 -0.49077,1.5463 -3.46448,4.70304 -6.60822,7.01498 -7.05806,5.19056 -13.81629,5.53676 -20.48258,1.04926 -9.85018,-6.63078 -9.90371,-15.20312 -0.15759,-25.23838 l 5.10517,-5.25663 -5.63038,3.16445 c -6.94933,3.90575 -10.20851,9.18661 -10.20851,16.54092 0,14.03027 18.98462,22.18686 32.40689,13.92337 z m -1.15122,-8.47435 c 3.96967,-3.84755 6.02864,-8.05332 3.94259,-8.05332 -1.97633,0 -9.68645,5.75297 -9.68645,7.22762 0,1.90274 -6.57129,3.10942 -9.92492,1.82251 -1.70043,-0.65252 -1.77847,-1.20493 -0.40416,-2.86087 1.3574,-1.63557 1.3295,-2.50246 -0.13739,-4.26996 -2.64821,-3.19089 1.04997,-5.50968 10.71267,-6.71695 l 7.71918,-0.96445 -3.29318,-3.29112 c -1.81125,-1.81012 -5.30619,-3.69324 -7.76654,-4.18472 -3.94315,-0.78769 -5.13853,-0.22842 -10.08556,4.71861 -4.87313,4.87313 -5.55526,6.29719 -5.17976,10.8137 0.3464,4.16657 1.39277,5.85001 5.259,8.4609 6.29913,4.25383 12.60009,3.35039 18.84452,-2.70195 z m -4.28366,-7.31995 c 2.30912,-1.74653 2.36082,-2.03069 0.37636,-2.06853 -3.53938,-0.0675 -6.73368,1.48436 -5.8843,2.85868 1.07334,1.73671 2.42314,1.54308 5.50794,-0.79015 z"
       id="path2683"
       transform="scale(0.26458333)" />
    <path
       style="fill:#241c1c;stroke:#00ff00;stroke-width:4.69083"
       d="m 367.38189,530.53658 c -5.70436,-2.97999 -8.07596,-5.27009 -10.66234,-10.2959 -3.84416,-7.46995 -3.43102,-13.07034 1.51508,-20.53773 4.30692,-6.50239 16.58235,-12.62244 23.54717,-11.7397 8.35155,1.05849 17.45674,7.48665 21.36686,15.08474 3.03704,5.90156 3.21813,7.13363 1.76255,11.99194 -3.25354,10.85932 -14.17791,19.23235 -25.17936,19.2988 -2.85476,0.0172 -8.17295,-1.62006 -12.34996,-3.80215 z m 5.12768,-18.39095 c -0.93427,-4.67136 2.20642,-7.25504 10.61358,-8.73119 4.18219,-0.73432 4.95772,-1.30511 3.75018,-2.7601 -3.10756,-3.74439 -8.37359,-3.39907 -13.23325,0.86777 -5.55809,4.88007 -6.66425,7.82442 -4.79078,12.752 1.83491,4.82618 4.71611,3.15074 3.66027,-2.12848 z m 9.3653,4.83813 c 2.76714,-1.06185 2.84364,-3.3 0.11279,-3.3 -1.86563,0 -2.68096,-1.6373 -2.23183,-4.4818 0.0898,-0.56885 -0.70611,-1.03426 -1.76873,-1.03426 -1.31476,0 -1.88832,1.54207 -1.79522,4.82655 0.13631,4.80899 1.34192,5.65534 5.68299,3.98951 z m 11.03214,-8.2741 c 3.34087,-1.28201 2.59302,-3.3 -1.22295,-3.3 -2.45946,0 -3.18397,0.57409 -2.6105,2.06853 0.90549,2.35965 0.89894,2.35755 3.83345,1.23147 z m -5.05141,-14.67689 c -0.32377,-0.9835 -3.48226,-1.90735 -7.35476,-2.15126 -6.98681,-0.44005 -7.41003,1.65597 -0.58171,2.88096 6.58984,1.1822 8.50782,1.00586 7.93647,-0.7297 z"
       id="path2685"
       transform="scale(0.26458333)" />
    <path
       style="fill:#241c1c;stroke:#00ff00;stroke-width:4.69083"
       d="m 374.78236,483.25849 c -6.0907,-1.27319 -11.03191,-4.74065 -14.23014,-9.9859 -5.42899,-8.90378 -1.8431,-19.21025 8.52385,-24.49908 18.78037,-9.58103 40.37002,10.00745 28.85432,26.17976 -4.9362,6.93226 -14.05861,10.20526 -23.14803,8.30522 z"
       id="path2687"
       transform="scale(0.26458333)" />
    <path
       style="fill:#241c1c;stroke:#00ff00;stroke-width:4.69083"
       d="m 370.37256,478.15239 c -5.78642,-3.19318 -10.15928,-10.71083 -9.01151,-15.49225 1.2074,-5.02983 7.3363,-10.8646 13.28412,-12.64661 10.52319,-3.15283 23.18208,5.45322 23.19603,15.76965 0.003,2.39846 -1.68889,5.66107 -4.56219,8.79638 -3.80845,4.15574 -5.69878,5.08299 -11.37689,5.58067 -4.95616,0.4344 -8.09422,-0.11209 -11.52956,-2.00784 z"
       id="path2689"
       transform="scale(0.26458333)" />
    <path
       style="fill:#241c1c;stroke:#00ff00;stroke-width:4.69083"
       d="m 373.54573,475.86431 c -9.32006,-4.09209 -11.32961,-12.4887 -4.51289,-18.85647 5.75761,-5.37842 14.30767,-5.58533 20.3599,-0.49271 5.40831,4.5508 6.335,7.80349 3.68383,12.93029 -3.51104,6.78961 -12.18999,9.64198 -19.53084,6.41889 z"
       id="path2691"
       transform="scale(0.26458333)" />
    <path
       style="fill:#241c1c;stroke:#00ff00;stroke-width:4.69083"
       d="m 370.89284,470.30742 c -1.86167,-1.86168 -3.38486,-4.08136 -3.38486,-4.93264 0,-2.79765 7.994,-9.60983 11.27081,-9.60457 5.18217,0.008 12.17248,5.00323 12.17248,8.6978 0,8.51977 -13.45968,12.43815 -20.05843,5.83941 z"
       id="path2693"
       transform="scale(0.26458333)" />
    <path
       style="fill:#241c1c;stroke:#00ff00;stroke-width:4.69083"
       d="m 368.48366,435.03474 c -10.11833,-5.49258 -13.35571,-16.18586 -7.52132,-24.8435 4.36171,-6.47235 10.86764,-9.90509 18.77267,-9.90509 11.98947,0 21.09355,7.79606 21.36895,18.29879 0.37408,14.2665 -18.81558,23.94347 -32.6203,16.4498 z"
       id="path2695"
       transform="scale(0.26458333)" />
    <path
       style="fill:#241c1c;stroke:#00ff00;stroke-width:4.69083"
       d="m 372.33454,433.13312 c -9.55074,-4.24485 -13.3408,-12.45163 -9.24153,-20.01103 8.55419,-15.77465 34.75334,-10.86649 34.75334,6.51071 0,5.45333 -6.17678,11.97785 -13.18023,13.92226 -6.72233,1.86636 -7.22145,1.84928 -12.33158,-0.42194 z"
       id="path2697"
       transform="scale(0.26458333)" />
    <path
       style="fill:#241c1c;stroke:#00ff00;stroke-width:4.69083"
       d="m 373.03755,429.89658 c -9.62403,-4.83069 -10.69588,-13.95566 -2.36764,-20.15638 11.2875,-8.40401 29.89006,3.49968 22.04366,14.10563 -5.01101,6.77336 -13.21198,9.29532 -19.67602,6.05075 z"
       id="path2699"
       transform="scale(0.26458333)" />
    <path
       style="fill:#241c1c;stroke:#00ff00;stroke-width:4.69083"
       d="m 371.47037,424.08516 c -3.6197,-3.61969 -3.90375,-4.46713 -2.42671,-7.23984 3.43571,-6.4495 9.73738,-8.30388 16.98965,-4.99953 6.55586,2.98705 6.21506,10.74718 -0.62736,14.28553 -5.87606,3.03863 -9.36275,2.52668 -13.93558,-2.04616 z"
       id="path2701"
       transform="scale(0.26458333)" />
    <path
       style="fill:#241c1c;stroke:#00ff00;stroke-width:4.69083"
       d="m 372.33454,390.30399 c -6.24609,-2.2593 -12.60533,-8.62064 -13.94208,-13.94669 -1.60743,-6.40451 1.76327,-14.02372 8.04228,-18.17897 7.39164,-4.89155 19.46395,-5.33313 25.36446,-0.92777 6.41809,4.7918 9.4567,9.92545 9.30476,15.72015 -0.34412,13.12352 -15.37372,22.1787 -28.76942,17.33328 z"
       id="path2703"
       transform="scale(0.26458333)" />
    <path
       style="fill:#241c1c;stroke:#00ff00;stroke-width:4.69083"
       d="m 367.49385,383.18985 c -6.66378,-6.02032 -7.84601,-9.81556 -4.8577,-15.59433 3.2598,-6.30376 9.68885,-9.72935 18.27128,-9.7355 6.39906,-0.005 7.7322,0.53318 12.06639,4.86737 5.51292,5.51292 6.32857,10.85378 2.61709,17.13681 -3.19691,5.41195 -8.87953,8.32903 -16.22533,8.32903 -5.34407,0 -7.19883,-0.78169 -11.87173,-5.00338 z"
       id="path2705"
       transform="scale(0.26458333)" />
    <path
       style="fill:#241c1c;stroke:#00ff00;stroke-width:4.69083"
       d="m 371.52242,382.28975 c -5.88733,-3.96747 -7.96106,-9.29466 -5.44687,-13.99245 2.18616,-4.08489 9.20328,-7.6844 14.98045,-7.6844 4.51496,0 11.97544,5.3449 13.30422,9.53154 1.27354,4.01254 -1.58745,9.54555 -6.47737,12.52694 -5.89931,3.59681 -10.62024,3.48669 -16.36043,-0.38163 z"
       id="path2707"
       transform="scale(0.26458333)" />
    <path
       style="fill:#241c1c;stroke:#ff0000;stroke-width:4.69083"
       d="m 376.3173,381.31278 c -1.60178,-0.64012 -4.22548,-2.83327 -5.83046,-4.87367 -3.70477,-4.70985 -2.10117,-8.28454 5.06149,-11.28295 4.67902,-1.95871 5.42399,-1.92393 9.88687,0.4615 6.04684,3.23208 7.04895,8.27693 2.47599,12.46466 -3.98095,3.64559 -7.85442,4.72487 -11.59389,3.23046 z"
       id="path2709"
       transform="scale(0.26458333)" />
    <path
       style="fill:#241c1c;stroke:#ff0000;stroke-width:4.69083"
       d="m 576.11276,619.91795 c -19.55687,-8.87778 -12.08345,-35.17082 9.96939,-35.07433 12.72029,0.0557 21.35919,7.86782 21.3696,19.32453 0.006,7.03457 -3.87361,12.33004 -11.6081,15.84287 -7.16491,3.25414 -12.41183,3.22939 -19.73089,-0.0931 z"
       id="path2780"
       transform="scale(0.26458333)" />
    <path
       style="fill:#241c1c;stroke:#ff0000;stroke-width:4.69083"
       d="m 580.42192,618.39127 c -9.68267,-2.84098 -14.94203,-12.7478 -10.90849,-20.54781 3.50908,-6.78581 9.72626,-9.94439 18.323,-9.30882 11.9921,0.8866 19.45034,10.72431 15.45075,20.38017 -3.0159,7.28102 -14.34505,11.97637 -22.86526,9.47646 z"
       id="path2782"
       transform="scale(0.26458333)" />
    <path
       style="fill:#241c1c;stroke:#ff0000;stroke-width:4.69083"
       d="m 575.63344,611.70003 c -7.16072,-7.16072 -4.44137,-16.70249 5.52496,-19.38614 11.23253,-3.02461 22.79631,5.52953 19.43313,14.37537 -1.80905,4.75816 -9.20761,9.0303 -15.64973,9.03659 -3.99836,0.004 -6.25434,-0.97179 -9.30836,-4.02582 z"
       id="path2784"
       transform="scale(0.26458333)" />
    <path
       style="fill:#241c1c;stroke:#ff0000;stroke-width:4.69083"
       d=""
       id="path2786"
       transform="scale(0.26458333)" />
    <path
       style="fill:#241c1c;stroke:#ff0000;stroke-width:4.69083"
       d=""
       id="path2788"
       transform="scale(0.26458333)" />
    <path
       style="fill:#241c1c;stroke:#ff0000;stroke-width:4.69083"
       d="m 575.05001,573.17378 c -10.16,-6.27578 -13.16718,-16.4369 -7.36161,-24.87447 8.4653,-12.3031 26.3662,-13.09822 36.0406,-1.60085 7.04248,8.36952 3.84235,21.9179 -6.31557,26.73815 -6.51083,3.08959 -17.13831,2.96469 -22.36342,-0.26283 z"
       id="path2790"
       transform="scale(0.26458333)" />
    <path
       style="fill:#241c1c;stroke:#ff0000;stroke-width:4.69083"
       d="m 580.62356,571.97557 c -7.99489,-2.03082 -13.95635,-10.14779 -12.45922,-16.96416 1.12749,-5.13343 8.9573,-11.9852 14.9891,-13.11677 6.69904,-1.25675 16.52414,3.31256 19.50104,9.06925 6.38725,12.35158 -6.76011,24.89069 -22.03092,21.01168 z"
       id="path2792"
       transform="scale(0.26458333)" />
    <path
       style="fill:#241c1c;stroke:#ff0000;stroke-width:4.69083"
       d="m 581.94509,569.26931 c -4.59293,-1.15415 -10.34262,-7.52025 -10.34262,-11.45144 0,-6.54205 7.27205,-12.41672 15.37022,-12.41672 11.7502,0 17.99272,12.59879 9.94022,20.06159 -2.0069,1.85993 -4.33399,3.39017 -5.17131,3.40053 -0.83732,0.0103 -2.76352,0.26189 -4.28044,0.55896 -1.51692,0.29708 -3.99915,0.22826 -5.51607,-0.15292 z"
       id="path2794"
       transform="scale(0.26458333)" />
    <path
       style="fill:#241c1c;stroke:#ff0000;stroke-width:4.69083"
       d="m 577.74536,562.70154 c -4.19762,-4.19762 -4.20571,-5.16016 -0.0837,-9.95231 4.43645,-5.15769 13.59223,-5.47816 17.53128,-0.61364 3.32362,4.1045 3.28226,5.83018 -0.2473,10.3173 -3.91679,4.97939 -12.34769,5.10127 -17.20031,0.24865 z"
       id="path2796"
       transform="scale(0.26458333)" />
    <path
       style="fill:#241c1c;stroke:#ff0000;stroke-width:4.69083"
       d=""
       id="path2798"
       transform="scale(0.26458333)" />
    <path
       style="fill:#241c1c;stroke:#ff0000;stroke-width:4.69083"
       d="m 577.11854,576.11423 c -3.47334,-1.32075 -8.77112,-5.89267 -11.33768,-9.78427 -5.01947,-7.61089 -1.78061,-18.64488 7.48819,-25.51037 5.91596,-4.38202 17.43401,-4.75965 24.47491,-0.80243 14.68441,8.25309 14.70218,27.31557 0.0323,34.68595 -4.62586,2.32412 -16.18098,3.11344 -20.65776,1.41112 z m 16.04747,-14.9178 c 3.21435,-3.21436 3.34133,-3.76772 1.5031,-6.55033 -3.14607,-4.76233 -11.84704,-4.88588 -16.21526,-0.23025 l -3.40384,3.62779 3.8692,3.33187 c 4.98164,4.28984 9.83894,4.22878 14.2468,-0.17908 z"
       id="path2800"
       transform="scale(0.26458333)" />
    <path
       style="fill:#241c1c;stroke:#ff0000;stroke-width:4.69083"
       d="m 627.06402,573.4461 c -9.46764,-4.66641 -12.95823,-14.1638 -8.55139,-23.26711 5.13145,-10.60017 19.02669,-14.67364 30.34955,-8.89715 18.69521,9.53758 11.16851,34.50314 -10.3774,34.42112 -3.79229,-0.0144 -8.93164,-1.03002 -11.42076,-2.25686 z"
       id="path2802"
       transform="scale(0.26458333)" />
    <path
       style="fill:#241c1c;stroke:#ff0000;stroke-width:4.69083"
       d="m 631.54654,571.57696 c -12.27263,-3.74638 -15.31762,-16.24455 -6.0638,-24.88891 13.05284,-12.19318 34.89998,-0.21521 29.66893,16.26636 -2.17547,6.85433 -14.56823,11.38119 -23.60513,8.62255 z"
       id="path2804"
       transform="scale(0.26458333)" />
    <path
       style="fill:#241c1c;stroke:#ff0000;stroke-width:4.69083"
       d="m 627.29971,565.61514 c -8.49913,-7.31064 -1.53638,-20.24844 10.86208,-20.18333 6.17794,0.0324 10.62461,2.65038 13.26225,7.80803 2.52772,4.94269 1.78268,8.26049 -2.70243,12.03447 -5.78219,4.86538 -15.97329,5.02753 -21.4219,0.34083 z"
       id="path2806"
       transform="scale(0.26458333)" />
    <path
       style="fill:#241c1c;stroke:#ff0000;stroke-width:4.69083"
       d="m 631.21497,564.38994 c -6.60353,-3.18248 -5.16124,-11.70186 2.51969,-14.8834 5.32534,-2.20583 10.30902,-0.69546 13.98044,4.23697 3.18412,4.27774 2.18513,7.58024 -3.12337,10.32537 -4.53268,2.34394 -8.95893,2.45018 -13.37676,0.32106 z"
       id="path2808"
       transform="scale(0.26458333)" />
    <path
       style="fill:#241c1c;stroke:#ff0000;stroke-width:4.69083"
       d="m 627.45265,575.17186 c -16.19124,-7.19626 -16.39381,-27.27504 -0.35771,-35.45605 7.0704,-3.60705 18.54984,-3.08353 24.20294,1.10378 9.39822,6.96136 12.13975,16.35059 7.38384,25.28833 -5.06025,9.5097 -20.28435,13.92835 -31.22907,9.06394 z m 15.21348,-12.46263 c 5.2726,-2.20304 6.10439,-5.28735 2.50001,-9.27015 -2.47707,-2.73713 -8.81627,-3.3214 -12.81535,-1.18116 -5.0998,2.72933 -4.83895,8.95532 0.46499,11.09843 4.04227,1.63333 4.4578,1.60603 9.85035,-0.64712 z"
       id="path2810"
       transform="scale(0.26458333)" />
    <path
       style="fill:#241c1c;stroke:#ff0000;stroke-width:4.69083"
       d="m 629.52117,621.08059 c -5.1521,-2.04839 -10.77442,-7.97483 -12.48622,-13.16164 -4.32516,-13.10537 11.31449,-26.55513 26.21369,-22.5432 6.70385,1.80516 12.93039,6.87174 15.2108,12.37713 5.97415,14.42287 -12.95529,29.68225 -28.93827,23.32771 z"
       id="path2812"
       transform="scale(0.26458333)" />
    <path
       style="fill:#241c1c;stroke:#ff0000;stroke-width:4.69083"
       d="m 630.21068,617.75124 c -6.27248,-3.1837 -10.33449,-8.87947 -10.29192,-14.43138 0.12993,-16.94468 26.65674,-20.80417 34.82378,-5.06666 2.53787,4.89034 2.53971,5.16068 0.0696,10.21627 -1.73757,3.55635 -4.47644,6.1709 -8.69024,8.2958 -7.22887,3.64531 -10.29725,3.83544 -15.91125,0.98597 z"
       id="path2814"
       transform="scale(0.26458333)" />
    <path
       style="fill:#241c1c;stroke:#ff0000;stroke-width:4.69083"
       d="m 631.4059,614.46498 c -5.01785,-3.05973 -8.77981,-7.95733 -8.77981,-11.43021 0,-1.33619 1.75535,-4.39402 3.90079,-6.79517 3.25285,-3.64058 4.95385,-4.38863 10.24069,-4.50356 11.20434,-0.24358 19.20924,8.84952 14.33682,16.28577 -2.06096,3.14542 -11.42271,9.09662 -14.28844,9.08306 -0.59906,-0.003 -3.03358,-1.19079 -5.41005,-2.63989 z"
       id="path2816"
       transform="scale(0.26458333)" />
    <path
       style="fill:#241c1c;stroke:#ff0000;stroke-width:4.69083"
       d="m 626.9064,621.63535 c -5.30462,-2.61301 -12.55441,-13.03805 -12.55441,-18.05297 0,-4.90662 5.47769,-13.80403 10.35378,-16.81762 7.5965,-4.6949 14.82881,-4.9618 23.06516,-0.85122 8.66758,4.32581 12.24642,8.8475 13.08774,16.53573 1.63911,14.9787 -18.91472,26.59346 -33.95227,19.18608 z m 14.06015,-8.13916 c 6.84248,-3.4649 9.23988,-6.13476 9.23988,-10.28998 0,-5.42268 -5.68099,-9.53947 -13.16405,-9.53947 -4.892,0 -6.50547,0.7231 -9.46714,4.24285 -1.96358,2.33357 -3.57013,4.91189 -3.57013,5.72959 0,1.4404 10.43681,12.09183 11.84819,12.09183 0.38496,0 2.68592,-1.00567 5.11325,-2.23482 z"
       id="path2818"
       transform="scale(0.26458333)" />
    <path
       style="fill:#241c1c;stroke:#ff0000;stroke-width:4.69083"
       d="m 628.42928,611.197 c -3.19175,-3.25216 -5.80319,-6.85377 -5.80319,-8.00358 0,-1.14981 2.04636,-4.07397 4.54746,-6.49813 6.01487,-5.82985 13.8779,-6.13108 20.24265,-0.7755 6.22892,5.24129 5.42335,10.63175 -2.48829,16.65026 -3.28241,2.49698 -7.03169,4.53997 -8.33173,4.53997 -1.30004,0 -4.97515,-2.66086 -8.1669,-5.91302 z m 17.98485,-3.43061 c 5.12958,-4.49761 1.15962,-10.82332 -7.69434,-12.26012 -4.25236,-0.69007 -5.5405,-0.19373 -9.32865,3.59441 l -4.39503,4.39503 5.22951,5.35551 c 5.18746,5.31244 5.26386,5.33812 9.50237,3.19331 2.35007,-1.1892 5.35884,-3.11436 6.68614,-4.27814 z"
       id="path2820"
       transform="scale(0.26458333)" />
    <path
       style="fill:#241c1c;stroke:#ff0000;stroke-width:4.69083"
       d=""
       id="path2822"
       transform="scale(0.26458333)" />
    <path
       style="fill:#241c1c;stroke:#ff0000;stroke-width:4.69083"
       d="m 580.25587,348.23823 c -4.60877,-1.09128 -12.07226,-5.3514 -11.09226,-6.3314 0.30716,-0.30716 2.97444,0.67326 5.9273,2.17871 10.40609,5.30533 25.4717,1.81044 30.95333,-7.1805 4.12723,-6.76946 3.76811,-16.29062 -0.82012,-21.74342 -5.0701,-6.02548 -10.25805,-8.33038 -18.75025,-8.33038 -17.13224,0 -28.08115,14.63594 -21.04382,28.13026 2.70269,5.18249 1.58979,6.29372 -1.53182,1.52953 -3.05212,-4.65811 -3.08233,-13.85479 -0.0646,-19.6678 5.23864,-10.09116 20.2929,-15.18822 31.83722,-10.7794 10.64774,4.06641 17.79348,15.45509 15.41398,24.56639 -3.2314,12.37326 -17.81168,20.71027 -30.82894,17.62801 z"
       id="path2824"
       transform="scale(0.26458333)" />
    <path
       style="fill:#241c1c;stroke:#ff0000;stroke-width:4.69083"
       d=""
       id="path2826"
       transform="scale(0.26458333)" />
    <path
       style="fill:#241c1c;stroke:#ff0000;stroke-width:4.69083"
       d=""
       id="path2828"
       transform="scale(0.26458333)" />
    <path
       style="fill:#241c1c;stroke:#ff0000;stroke-width:4.69083"
       d="m 577.80804,341.58883 c -5.70839,-1.94612 -7.32984,-3.27799 -9.4212,-7.7386 -3.20019,-6.82564 -2.18464,-12.8816 2.99185,-17.84099 3.95871,-3.79268 10.7334,-6.41997 16.55447,-6.41997 8.4713,0 18.12741,8.69805 18.13957,16.3398 0.0206,12.91226 -13.82425,20.58283 -28.26469,15.65976 z"
       id="path2830"
       transform="scale(0.26458333)" />
    <path
       style="fill:#241c1c;stroke:#ff0000;stroke-width:4.69083"
       d=""
       id="path2832"
       transform="scale(0.26458333)" />
    <path
       style="fill:#241c1c;stroke:#ff0000;stroke-width:4.69083"
       d="m 577.57187,337.91737 c -5.12071,-2.22748 -7.34842,-5.79013 -7.34842,-11.75192 0,-5.49279 4.73568,-10.30242 12.40708,-12.60083 5.21134,-1.56136 6.38277,-1.46013 10.74418,0.92841 7.56435,4.14265 10.6655,9.14486 9.08528,14.65475 -2.58973,9.02987 -14.57846,13.25422 -24.88812,8.76959 z"
       id="path2834"
       transform="scale(0.26458333)" />
    <path
       style="fill:#241c1c;stroke:#ff0000;stroke-width:4.69083"
       d="m 578.49755,349.16512 c -7.35293,-2.73965 -9.06613,-3.96396 -13.67398,-9.77185 -10.7085,-13.49738 -1.17194,-33.33838 17.35981,-36.11739 16.51401,-2.47643 32.73102,11.74271 30.32219,26.5866 -2.21206,13.63132 -20.84487,24.20713 -34.00802,19.30264 z m 17.92722,-14.65111 c 7.26461,-5.14922 4.31751,-15.33547 -5.62885,-19.45539 -3.43419,-1.42248 -4.87522,-1.2022 -10.55117,1.61289 -4.47339,2.21867 -6.99981,4.50205 -7.90724,7.14656 -3.80908,11.10078 12.99118,18.56093 24.08726,10.69594 z"
       id="path2836"
       transform="scale(0.26458333)" />
    <path
       style="fill:#241c1c;stroke:#ff0000;stroke-width:4.69083"
       d=""
       id="path2838"
       transform="scale(0.26458333)" />
    <path
       style="fill:#241c1c;stroke:#ff0000;stroke-width:4.69083"
       d=""
       id="path2840"
       transform="scale(0.26458333)" />
    <path
       style="fill:#241c1c;stroke:#ff0000;stroke-width:4.69083"
       d="m 525.40541,343.49703 c -20.85833,-9.27055 -13.58295,-35.29969 9.86152,-35.28162 15.75681,0.0121 25.90712,14.95655 18.45726,27.1748 -5.20474,8.53613 -18.67607,12.39256 -28.31878,8.10682 z"
       id="path2842"
       transform="scale(0.26458333)" />
    <path
       style="fill:#241c1c;stroke:#ff0000;stroke-width:4.69083"
       d="m 522.77702,343.69726 c -7.75169,-4.43264 -10.93195,-9.34044 -10.93195,-16.87028 0,-11.41013 8.22705,-18.9248 21.50454,-19.64248 10.36133,-0.56005 17.82346,3.06381 21.98957,10.67888 9.79128,17.89707 -13.76256,36.58401 -32.56216,25.83388 z m 23.31364,-3.56743 c 2.27538,-1.29112 5.27237,-4.65361 6.65998,-7.47221 2.08646,-4.23813 2.25847,-5.92606 0.99424,-9.7567 -2.57434,-7.80032 -10.56602,-13.35134 -19.12089,-13.28136 -6.12579,0.0501 -15.0466,4.89263 -17.40123,9.44598 -8.55031,16.53448 11.3108,31.02671 28.8679,21.06429 z"
       id="path2844"
       transform="scale(0.26458333)" />
    <path
       style="fill:#241c1c;stroke:#ff0000;stroke-width:4.69083"
       d="m 523.25587,336.11993 c -8.31688,-7.43114 -5.0751,-18.64391 6.49414,-22.46211 6.24661,-2.06156 12.06005,-0.55239 17.03463,4.42219 5.35648,5.35648 5.42994,10.699 0.22718,16.5219 -3.28305,3.67438 -5.1199,4.47161 -11.52685,5.00292 -6.95089,0.57643 -8.02684,0.26982 -12.2291,-3.4849 z"
       id="path2852"
       transform="scale(0.26458333)" />
    <path
       style="fill:#241c1c;stroke:#ff0000;stroke-width:4.69083"
       d="m 525.60677,333.78792 c -4.22242,-3.91322 -4.68949,-8.83962 -1.23563,-13.03275 5.45445,-6.62192 16.83021,-5.7208 21.70518,1.71935 2.06549,3.15233 2.07436,3.81637 0.10189,7.63072 -1.49063,2.88256 -3.76316,4.623 -7.32959,5.61345 -7.49202,2.08064 -9.17883,1.83469 -13.24184,-1.93077 z"
       id="path2854"
       transform="scale(0.26458333)" />
    <path
       style="fill:#241c1c;stroke:#ff0000;stroke-width:4.69083"
       d="m 528.65761,332.07641 c -4.13973,-4.81231 -4.28559,-6.08464 -1.08778,-9.48856 3.64018,-3.87479 6.69861,-4.18141 12.38373,-1.24152 4.889,2.5282 5.31158,6.68161 0.96578,9.49252 -5.45087,3.5257 -9.90653,3.9754 -12.26173,1.23756 z"
       id="path2856"
       transform="scale(0.26458333)" />
    <path
       style="fill:#241c1c;stroke:#ff0000;stroke-width:4.69083"
       d="m 471.90992,342.64061 c -7.37388,-4.00279 -10.93349,-10.16835 -10.17458,-17.62326 1.02315,-10.05068 9.55287,-16.80709 21.21833,-16.80709 12.25462,0 21.35278,8.01532 21.35278,18.81143 0,13.81339 -18.91941,22.93476 -32.39653,15.61892 z"
       id="path2858"
       transform="scale(0.26458333)" />
    <path
       style="fill:#241c1c;stroke:#ff0000;stroke-width:4.69083"
       d="m 474.24908,339.93582 c -14.56916,-7.33672 -11.05643,-25.85187 5.36999,-28.30455 10.03965,-1.49905 19.49195,4.10579 21.06496,12.4907 2.36443,12.60347 -13.71217,22.22077 -26.43495,15.81385 z"
       id="path2860"
       transform="scale(0.26458333)" />
    <path
       style="fill:#241c1c;stroke:#ff0000;stroke-width:4.69083"
       d="m 474.76121,336.39901 c -7.56566,-4.10573 -8.61545,-11.20128 -2.55403,-17.2627 7.17109,-7.17108 21.55623,-4.83747 24.63577,3.99652 3.7473,10.7495 -10.71202,19.43631 -22.08174,13.26618 z"
       id="path2862"
       transform="scale(0.26458333)" />
    <path
       style="fill:#241c1c;stroke:#ff0000;stroke-width:4.69083"
       d="m 477.00145,333.82144 c -7.14403,-3.10998 -7.24208,-8.90991 -0.23363,-13.81882 4.37143,-3.06186 9.97693,-2.64149 14.29408,1.07196 4.73467,4.0726 3.80195,9.54353 -2.15194,12.62241 -4.87773,2.52237 -6.36448,2.53791 -11.90851,0.12445 z"
       id="path2864"
       transform="scale(0.26458333)" />
    <path
       style="fill:#241c1c;stroke:#ff0000;stroke-width:4.69083"
       d="m 421.97914,343.49703 c -5.38051,-2.39139 -10.10856,-7.59803 -11.58987,-12.76306 -1.21759,-4.24549 0.74914,-12.39473 3.9107,-16.20418 5.30157,-6.388 20.91594,-8.32823 28.72179,-3.56895 5.57348,3.3982 9.97495,10.39917 9.97495,15.86614 0,13.09572 -17.68034,22.59782 -31.01757,16.67005 z"
       id="path2866"
       transform="scale(0.26458333)" />
    <path
       style="fill:#241c1c;stroke:#ff0000;stroke-width:4.69083"
       d="m 426.11619,341.67518 c -13.48112,-3.37541 -17.29707,-21.45081 -5.80787,-27.51074 5.88039,-3.10158 17.164,-3.07467 21.89252,0.0522 4.68093,3.09543 8.50864,11.00755 7.28533,15.05926 -1.4627,4.84458 -7.59796,10.54528 -12.94896,12.03179 -5.18037,1.43911 -6.02244,1.4688 -10.42102,0.36748 z"
       id="path2868"
       transform="scale(0.26458333)" />
    <path
       style="fill:#241c1c;stroke:#ff0000;stroke-width:4.69083"
       d="m 427.49521,338.92826 c -5.43735,-1.27714 -10.34262,-7.41842 -10.34262,-12.9487 0,-7.13751 4.83906,-10.87422 14.08221,-10.87422 5.69389,0 7.47841,0.66322 10.84617,4.03097 4.20681,4.20682 5.01455,8.10267 2.61107,12.59362 -2.36871,4.42597 -11.94107,8.43281 -17.19683,7.19833 z"
       id="path2870"
       transform="scale(0.26458333)" />
    <path
       style="fill:#241c1c;stroke:#ff0000;stroke-width:4.69083"
       d="m 424.25925,333.37731 c -3.72984,-3.15607 -4.95595,-8.64676 -2.63797,-11.81311 1.02202,-1.39607 4.31982,-2.83822 7.45048,-3.25812 4.83021,-0.64787 6.24832,-0.18914 10.12602,3.27559 5.30101,4.73645 4.94258,8.19805 -1.22619,11.84203 -5.12584,3.0279 -10.09904,3.01108 -13.71234,-0.0464 z"
       id="path2872"
       transform="scale(0.26458333)" />
    <path
       style="fill:#241c1c;stroke:#0000ff;stroke-width:4.69083"
       d="m 426.40062,330.58881 c -3.4156,-3.77419 -2.88977,-7.07353 1.38645,-8.69935 6.46401,-2.45761 14.15905,3.53981 9.89459,7.71174 -3.44585,3.37108 -8.70719,3.83169 -11.28104,0.98761 z"
       id="path2874"
       transform="scale(0.26458333)" />
    <path
       style="fill:#241c1c;stroke:#0000ff;stroke-width:4.69083"
       d="m 110.19903,158.04781 c -14.05628,-8.57143 -13.596024,-25.10669 0.9076,-32.60681 5.01316,-2.5924 15.48054,-2.5924 20.49369,0 11.18432,5.78363 14.64317,18.41406 7.40001,27.02206 -6.86903,8.16339 -20.30132,10.76799 -28.8013,5.58475 z"
       id="path2945"
       transform="scale(0.26458333)" />
    <path
       style="fill:#241c1c;stroke:#0000ff;stroke-width:4.69083"
       d="m 112.55741,155.53943 c -5.08705,-2.50606 -9.80737,-9.06632 -9.8155,-13.64152 -0.003,-1.59437 1.41133,-5.00744 3.14259,-7.58459 6.1701,-9.18483 20.83838,-10.56063 28.70651,-2.6925 8.13399,8.13398 6.05508,18.71049 -4.63119,23.56131 -7.17164,3.25543 -11.34554,3.34112 -17.40241,0.3573 z"
       id="path2947"
       transform="scale(0.26458333)" />
    <path
       style="fill:#241c1c;stroke:#0000ff;stroke-width:4.69083"
       d="m 113.77846,152.08302 c -2.62087,-1.7662 -5.67509,-4.83233 -6.78716,-6.81363 -1.80695,-3.2193 -1.77202,-3.9838 0.3285,-7.1896 5.95984,-9.09587 17.33291,-11.06316 24.46348,-4.23164 5.60829,5.37308 5.53568,11.52175 -0.19298,16.3421 -2.33357,1.96357 -4.97094,3.5786 -5.86082,3.58896 -0.88988,0.0103 -2.87073,0.35548 -4.40189,0.76695 -1.66269,0.44682 -4.70313,-0.54522 -7.54913,-2.46314 z"
       id="path2949"
       transform="scale(0.26458333)" />
    <path
       style="fill:#241c1c;stroke:#0000ff;stroke-width:4.69083"
       d="m 112.57523,146.36702 -4.49273,-4.63532 4.32829,-4.32829 c 5.53709,-5.53709 12.31571,-5.90719 17.27947,-0.94343 4.33329,4.33329 4.27121,6.95753 -0.26405,11.16067 -5.34084,4.94972 -11.26567,4.50895 -16.85098,-1.25363 z"
       id="path2951"
       transform="scale(0.26458333)" />
    <path
       style="fill:#241c1c;stroke:#0000ff;stroke-width:4.69083"
       d="m 111.3841,112.43976 c -15.055599,-6.83444 -15.055599,-26.361743 0,-33.196186 7.37077,-3.34594 12.56799,-3.34594 19.93876,0 10.53187,4.780911 14.40973,16.480022 8.6137,25.986636 -3.09397,5.07471 -12.10999,9.85712 -18.58308,9.85712 -2.27538,0 -6.7616,-1.1914 -9.96938,-2.64757 z"
       id="path2953"
       transform="scale(0.26458333)" />
    <path
       style="fill:#241c1c;stroke:#0000ff;stroke-width:4.69083"
       d="m 115.78561,110.92297 c -11.67158,-3.39423 -16.074714,-16.538263 -8.26935,-24.68531 7.86132,-8.20545 19.80763,-8.21118 27.66173,-0.01327 8.0466,8.398839 3.37866,21.37104 -8.91956,24.7875 -5.52981,1.53619 -4.86521,1.54183 -10.47282,-0.0889 z"
       id="path2955"
       transform="scale(0.26458333)" />
    <path
       style="fill:#241c1c;stroke:#0000ff;stroke-width:4.69083"
       d="m 116.95843,108.0414 c -11.54549,-3.15624 -13.54892,-17.185314 -3.21714,-22.528084 10.06371,-5.20415 22.09187,0.662103 22.09187,10.77443 0,7.364254 -10.65656,14.000294 -18.87473,11.753654 z"
       id="path2957"
       transform="scale(0.26458333)" />
    <path
       style="fill:#241c1c;stroke:#0000ff;stroke-width:4.69083"
       d="m 110.96943,113.42413 c -3.37804,-1.70653 -7.54315,-5.21137 -9.25581,-7.78852 -6.400858,-9.631838 -2.390752,-21.492744 9.25581,-27.376406 3.37804,-1.706533 8.05086,-3.102788 10.38405,-3.102788 6.16218,0 16.04359,5.47975 19.63986,10.891314 6.22048,9.360402 2.53862,20.99654 -8.6485,27.33272 -6.97428,3.9501 -13.61589,3.96367 -21.37541,0.0437 z m 17.58688,-9.27074 c 11.7894,-7.188289 2.73409,-22.105535 -10.94523,-18.03062 -5.41738,1.613773 -9.35826,5.880413 -9.35826,10.131816 0,1.406501 1.81394,4.371214 4.03097,6.588244 4.78676,4.78676 9.89634,5.19827 16.27252,1.31056 z"
       id="path2959"
       transform="scale(0.26458333)" />
    <path
       style="fill:#241c1c;stroke:#0000ff;stroke-width:4.69083"
       d="m 111.56246,103.56416 c -5.91796,-5.917956 -6.09313,-10.432584 -0.58464,-15.067673 8.34584,-7.022566 19.8703,-5.497579 23.43179,3.100641 2.31691,5.593508 0.4406,10.097982 -5.78817,13.895672 -6.73213,4.10459 -11.57305,3.55729 -17.05898,-1.92864 z m 15.65184,-0.81229 c 3.68935,-2.24944 4.44527,-3.528651 4.27518,-7.234686 -0.18159,-3.956793 -0.27452,-4.060123 -0.76727,-0.853133 -0.62339,4.057302 -3.68564,7.275939 -8.24167,8.662579 -2.20892,0.67228 -4.22746,-0.17197 -7.58459,-3.17224 l -4.57461,-4.088331 3.44755,-3.690763 c 2.95345,-3.16182 4.28389,-3.597849 9.28331,-3.042447 3.20967,0.356574 5.50014,0.105256 5.08993,-0.558483 -0.41022,-0.663739 -3.21966,-1.206798 -6.24321,-1.206798 -3.99802,0 -6.42055,0.923183 -8.88222,3.384859 -4.33653,4.336524 -4.25845,5.606834 0.64611,10.511383 4.7394,4.73941 7.46584,4.99855 13.55149,1.28806 z"
       id="path2961"
       transform="scale(0.26458333)" />
    <path
       style="fill:#241c1c;stroke:#0000ff;stroke-width:4.69083"
       d="M 61.667834,113.41624 C 56.509325,111.7631 49.409445,104.33766 48.136017,99.263919 45.121568,87.253395 59.722091,74.850312 74.029482,77.26753 c 6.372889,1.076693 13.809879,7.055754 16.323072,13.123141 3.491365,8.428899 -3.137477,19.667749 -13.678148,23.190579 -5.519379,1.84465 -8.849807,1.80803 -15.006572,-0.16501 z"
       id="path2963"
       transform="scale(0.26458333)" />
    <path
       style="fill:#241c1c;stroke:#0000ff;stroke-width:4.69083"
       d="m 65.459821,111.05816 c -5.668796,-1.6671 -9.5858,-4.58417 -12.554865,-9.34984 -2.42409,-3.890929 -2.577297,-5.116174 -1.172127,-9.37388 3.270616,-9.910065 18.318253,-15.209935 27.209959,-9.583514 8.187573,5.180864 10.513433,11.573861 7.008979,19.265304 -2.892797,6.34899 -13.59357,11.07064 -20.491946,9.04193 z"
       id="path2965"
       transform="scale(0.26458333)" />
    <path
       style="fill:#241c1c;stroke:#0000ff;stroke-width:4.69083"
       d="M 60.6511,114.60517 C 55.943681,112.55401 48.294674,104.41526 46.877278,99.949438 43.037188,87.850383 59.874628,73.017412 74.363371,75.735516 84.400256,77.618448 94.05198,89.558064 92.448152,98.107204 89.987122,111.22562 73.056044,120.01035 60.6511,114.60517 Z m 18.062754,-7.57343 c 9.037251,-5.5109 9.262807,-15.994817 0.4733,-21.999223 C 70.836293,79.327763 57.053979,83.222821 53.860202,92.190236 49.648001,104.01716 66.830837,114.278 78.713854,107.03174 Z"
       id="path2967"
       transform="scale(0.26458333)" />
    <path
       style="fill:#241c1c;stroke:#0000ff;stroke-width:4.69083"
       d="m 60.492936,108.36581 c -9.879904,-6.02447 -11.48241,-14.234391 -4.19991,-21.516891 7.551706,-7.551705 17.527309,-8.06433 25.550808,-1.313001 14.413593,12.128238 -4.948519,32.831582 -21.350898,22.829892 z m 18.800531,-4.0582 c 4.419169,-3.24861 5.315424,-10.842805 1.792824,-15.191033 -5.200914,-6.419903 -18.469375,-6.016643 -23.770335,0.722436 -3.430851,4.36162 -3.575606,7.103627 -0.599336,11.352847 4.905699,7.00387 15.330628,8.44257 22.576847,3.11575 z"
       id="path2969"
       transform="scale(0.26458333)" />
    <path
       style="fill:#241c1c;stroke:#0000ff;stroke-width:4.69083"
       d="m 59.449828,109.21058 c -9.575872,-5.94246 -11.690149,-14.234809 -5.503909,-21.586737 8.838943,-10.504488 19.695274,-11.147388 29.76235,-1.762494 6.914634,6.446074 6.129719,14.491381 -2.17025,22.244821 -5.286366,4.93828 -15.118027,5.42986 -22.088191,1.10441 z m 18.253046,-6.12907 c 4.292458,-3.632152 5.023838,-8.858478 1.797285,-12.843101 -2.249227,-2.77768 -3.958454,-3.36035 -9.857371,-3.36035 -6.109332,0 -7.615278,0.556817 -10.464465,3.869195 -4.243328,4.933163 -4.184565,5.829164 0.70283,10.716556 4.790983,4.79099 13.172439,5.55178 17.821721,1.6177 z"
       id="path2971"
       transform="scale(0.26458333)" />
    <path
       style="fill:#241c1c;stroke:#0000ff;stroke-width:4.69083"
       d="m 58.040626,157.52999 c -6.86434,-3.9196 -11.097639,-11.68421 -9.887415,-18.13526 3.976545,-21.1968 38.997732,-21.1968 42.974276,0 1.961893,10.45779 -8.933485,21.21536 -21.487138,21.21536 -3.892487,0 -8.21621,-1.14809 -11.599723,-3.0801 z"
       id="path2973"
       transform="scale(0.26458333)" />
    <path
       style="fill:#241c1c;stroke:#0000ff;stroke-width:4.69083"
       d="M 63.631352,156.5415 C 55.89304,154.1008 50.10923,145.90536 51.391427,139.19798 c 0.893523,-4.67416 6.686539,-9.99033 12.922308,-11.85861 9.581493,-2.87069 21.963211,3.42428 23.602507,11.9997 0.817875,4.27844 -2.67415,11.33536 -7.276095,14.70403 -4.219205,3.0885 -11.668573,4.18273 -17.008795,2.4984 z"
       id="path2975"
       transform="scale(0.26458333)" />
    <path
       style="fill:#241c1c;stroke:#0000ff;stroke-width:4.69083"
       d="m 58.714293,149.51725 c -5.49592,-5.49592 -5.484035,-10.03935 0.03976,-15.19934 5.265642,-4.91885 13.381501,-5.41193 20.240968,-1.22974 5.286931,3.22342 6.448095,5.54893 5.217954,10.4502 -2.651489,10.56438 -17.444539,14.03302 -25.498682,5.97888 z"
       id="path2977"
       transform="scale(0.26458333)" />
    <path
       style="fill:#241c1c;stroke:#0000ff;stroke-width:4.69083"
       d="m 58.37445,159.23949 c -14.506557,-7.66301 -15.451109,-23.61596 -1.993183,-33.66375 5.439872,-4.06145 21.078292,-4.06145 26.518165,0 6.577663,4.91093 9.494694,9.96882 9.494694,16.46299 0,15.0728 -19.440484,24.90215 -34.019676,17.20076 z m 19.012817,-9.49011 c 5.376416,-3.27842 7.114845,-9.06741 3.817192,-12.71128 -3.790083,-4.18799 -11.977291,-6.07666 -17.115583,-3.94831 -9.207082,3.8137 -10.280764,11.72961 -2.254747,16.62353 5.50607,3.35736 10.088985,3.36798 15.553138,0.0361 z"
       id="path2979"
       transform="scale(0.26458333)" />
    <path
       style="fill:#241c1c;stroke:#0000ff;stroke-width:4.69083"
       d="m 315.79485,340.99886 c -5.82792,-3.36116 -10.34039,-10.45181 -10.33533,-16.2404 0.002,-1.89615 1.23614,-5.47003 2.74329,-7.94195 8.03072,-13.17144 29.55788,-13.60622 37.97053,-0.76689 10.6583,16.26662 -12.48164,35.27098 -30.37849,24.94924 z"
       id="path2981"
       transform="scale(0.26458333)" />
    <path
       style="fill:#241c1c;stroke:#0000ff;stroke-width:4.69083"
       d="m 320.62212,339.7574 c -4.70352,-1.87555 -9.10925,-6.21791 -11.04145,-10.88266 -3.45052,-8.3303 6.79594,-19.28547 18.03788,-19.28547 2.39194,0 6.69666,1.31947 9.56603,2.93215 11.66091,6.5538 10.74279,19.81811 -1.79176,25.88598 -6.54406,3.16793 -9.52779,3.44063 -14.7707,1.35 z"
       id="path2983"
       transform="scale(0.26458333)" />
    <path
       style="fill:#241c1c;stroke:#0000ff;stroke-width:4.69083"
       d="m 264.77123,342.37788 c -5.82793,-3.36117 -10.34039,-10.45182 -10.33533,-16.2404 0.002,-1.89615 1.23614,-5.47003 2.74329,-7.94195 8.03072,-13.17144 29.55788,-13.60623 37.97053,-0.76689 10.65829,16.26661 -12.48164,35.27097 -30.37849,24.94924 z"
       id="path2985"
       transform="scale(0.26458333)" />
    <path
       style="fill:#241c1c;stroke:#0000ff;stroke-width:4.69083"
       d="m 269.59849,341.13642 c -4.70352,-1.87555 -9.10924,-6.21792 -11.04144,-10.88266 -3.45053,-8.33031 6.79594,-19.28547 18.03788,-19.28547 2.39194,0 6.69665,1.31947 9.56603,2.93215 11.66091,6.55379 10.74279,19.81811 -1.79176,25.88598 -6.54407,3.16792 -9.5278,3.44063 -14.77071,1.35 z"
       id="path2987"
       transform="scale(0.26458333)" />
    <path
       style="fill:#241c1c;stroke:#0000ff;stroke-width:4.69083"
       d="m 215.05826,343.50399 c -14.5525,-6.33867 -15.74795,-25.5221 -2.02668,-32.52217 19.51118,-9.95386 41.23653,8.11852 29.99265,24.94959 -5.72662,8.57222 -18.02534,11.90245 -27.96597,7.57258 z"
       id="path2989"
       transform="scale(0.26458333)" />
    <path
       style="fill:#241c1c;stroke:#0000ff;stroke-width:4.69083"
       d=""
       id="path2991"
       transform="scale(0.26458333)" />
    <path
       style="fill:#241c1c;stroke:#0000ff;stroke-width:4.69083"
       d=""
       id="path2993"
       transform="scale(0.26458333)" />
    <path
       style="fill:#241c1c;stroke:#0000ff;stroke-width:4.69083"
       d="m 161.48852,342.31824 c -18.28323,-10.48192 -10.17129,-34.08822 11.71891,-34.10283 22.28936,-0.0149 29.57441,24.80635 10.11117,34.45023 -7.31595,3.62499 -15.11774,3.50084 -21.83008,-0.3474 z"
       id="path2995"
       transform="scale(0.26458333)" />
    <path
       style="fill:#241c1c;stroke:#0000ff;stroke-width:4.69083"
       d="m 111.63199,343.50399 c -14.591291,-6.35557 -15.686261,-24.67798 -1.9366,-32.40572 13.74399,-7.72455 33.03285,0.99998 33.03285,14.94108 0,14.07194 -16.98486,23.61118 -31.09625,17.46464 z"
       id="path2997"
       transform="scale(0.26458333)" />
    <path
       style="fill:#241c1c;stroke:#ffff00;stroke-width:4.69083"
       d=""
       id="path2999"
       transform="scale(0.26458333)" />
    <path
       style="fill:#241c1c;stroke:#ffff00;stroke-width:4.69083"
       d="m 626.62478,157.98765 c -6.53756,-3.55835 -9.97443,-9.05384 -9.97443,-15.94892 0,-7.0417 3.51048,-12.49044 10.26851,-15.93813 12.77183,-6.5157 29.33293,-0.31711 32.46199,12.15008 1.40683,5.60526 -1.9073,13.70655 -7.28522,17.80849 -6.55761,5.00173 -18.20444,5.88355 -25.47085,1.92848 z"
       id="path3070"
       transform="scale(0.26458333)" />
    <path
       style="fill:#241c1c;stroke:#ffff00;stroke-width:4.69083"
       d="m 631.35929,156.42709 c -6.16453,-1.84521 -11.49123,-8.62783 -11.49123,-14.63207 0,-6.35459 6.96148,-13.60604 14.402,-15.00189 7.66066,-1.43714 17.20644,2.80897 20.64586,9.18361 2.60194,4.82246 2.60194,4.97341 0,10.21595 -4.52375,9.11472 -13.81355,13.15076 -23.55663,10.2344 z"
       id="path3072"
       transform="scale(0.26458333)" />
    <path
       style="fill:#241c1c;stroke:#ffff00;stroke-width:4.69083"
       d="m 628.64831,151.31643 c -3.036,-2.45926 -6.02222,-7.33291 -6.02222,-9.82856 0,-2.77472 8.33366,-10.86064 11.89505,-11.54145 5.63604,-1.07739 12.41181,1.42848 16.2742,6.01868 3.30477,3.92749 3.39788,4.43264 1.49521,8.11199 -4.69516,9.07944 -16.79622,12.78483 -23.64224,7.23934 z"
       id="path3074"
       transform="scale(0.26458333)" />
    <path
       style="fill:#241c1c;stroke:#ffff00;stroke-width:4.69083"
       d="m 631.2177,148.86309 c -5.88314,-4.12071 -6.213,-6.81565 -1.4091,-11.51235 4.813,-4.7056 8.85597,-5.32315 14.78313,-2.2581 6.25803,3.23616 6.49767,6.29121 0.89615,11.42462 -5.37415,4.92504 -9.59681,5.61919 -14.27018,2.34583 z"
       id="path3076"
       transform="scale(0.26458333)" />
    <path
       style="fill:#241c1c;stroke:#ffff00;stroke-width:4.69083"
       d="m 575.76701,158.24004 c -2.63949,-1.32613 -6.2077,-4.51972 -7.92935,-7.09688 -11.11138,-16.63272 11.33139,-35.27073 29.90258,-24.83314 17.64004,9.91426 9.63889,34.35084 -11.24486,34.3433 -3.26112,-0.001 -8.08888,-1.08716 -10.72837,-2.41328 z"
       id="path3078"
       transform="scale(0.26458333)" />
    <path
       style="fill:#241c1c;stroke:#ffff00;stroke-width:4.69083"
       d="m 579.18706,156.02279 c -14.04877,-6.48867 -14.65432,-20.65825 -1.16198,-27.18978 10.00881,-4.84518 21.3749,-1.08425 25.29029,8.36832 2.19855,5.30778 -0.33994,12.90565 -5.63191,16.85667 -4.64161,3.46546 -13.26415,4.38139 -18.4964,1.96479 z"
       id="path3080"
       transform="scale(0.26458333)" />
    <path
       style="fill:#241c1c;stroke:#ffff00;stroke-width:4.69083"
       d="m 575.88536,149.75956 c -6.43722,-6.01327 -5.35955,-13.2516 2.58459,-17.35967 14.8048,-7.65586 30.04166,7.53092 17.84902,17.79036 -6.12802,5.15639 -14.64479,4.97687 -20.43361,-0.43069 z"
       id="path3082"
       transform="scale(0.26458333)" />
    <path
       style="fill:#241c1c;stroke:#ffff00;stroke-width:4.69083"
       d="m 580.19408,148.86309 c -3.89552,-2.72852 -6.04592,-6.73494 -5.03246,-9.37598 1.28718,-3.35434 9.83498,-6.71811 14.47943,-5.69802 4.95781,1.08892 8.75195,6.28926 7.48986,10.26577 -0.97667,3.07722 -7.30667,6.94748 -11.36295,6.94748 -1.38582,0 -3.89407,-0.96266 -5.57388,-2.13925 z"
       id="path3084"
       transform="scale(0.26458333)" />
    <path
       style="fill:#241c1c;stroke:#ffff00;stroke-width:4.69083"
       d="m 579.62666,113.79498 c -17.90774,-5.4044 -20.0941,-26.322074 -3.5865,-34.313265 7.42567,-3.594708 12.43356,-3.678464 19.80349,-0.331209 8.08073,3.670082 11.61326,8.747215 11.61326,16.691162 0,7.943952 -3.53253,13.021082 -11.61326,16.691162 -5.99907,2.72464 -10.26962,3.05702 -16.21699,1.26215 z"
       id="path3086"
       transform="scale(0.26458333)" />
    <path
       style="fill:#241c1c;stroke:#ffff00;stroke-width:4.69083"
       d="m 580.31354,110.72432 c -5.69165,-1.86528 -11.21747,-7.69777 -12.18763,-12.864015 -1.66359,-8.858782 11.50291,-19.979493 21.00384,-17.740307 9.11826,2.148997 15.56912,8.718326 15.56912,15.855039 0,9.989603 -13.67338,18.259843 -24.38533,14.749283 z"
       id="path3088"
       transform="scale(0.26458333)" />
    <path
       style="fill:#241c1c;stroke:#ffff00;stroke-width:4.69083"
       d="m 578.18747,106.10321 c -8.06956,-4.3792 -8.79436,-12.173038 -1.71046,-18.392787 5.78894,-5.082752 11.61305,-5.567736 18.25211,-1.519885 9.07623,5.533792 9.07623,13.768469 0,19.302262 -5.3018,3.23252 -11.30187,3.45393 -16.54165,0.61041 z"
       id="path3090"
       transform="scale(0.26458333)" />
    <path
       style="fill:#241c1c;stroke:#ffff00;stroke-width:4.69083"
       d="m 575.69809,113.42413 c -3.37803,-1.70653 -7.54315,-5.21137 -9.2558,-7.78852 -6.40086,-9.631838 -2.39076,-21.492744 9.2558,-27.376406 7.89836,-3.990128 13.03679,-3.916196 21.51684,0.309588 8.06735,4.020133 11.62099,9.30209 11.62099,17.272876 0,7.970782 -3.55364,13.252742 -11.62099,17.272872 -8.48005,4.22579 -13.61848,4.29972 -21.51684,0.30959 z m 19.34766,-10.50737 c 5.42252,-4.004798 4.79213,-10.884286 -1.37901,-15.049378 -5.62659,-3.797551 -11.14861,-3.345693 -16.11345,1.318535 -4.41134,4.144238 -5.16771,7.609415 -2.53725,11.624013 4.23757,6.46734 12.89286,7.37775 20.02971,2.10683 z M 571.77837,85.154288 c 1.71532,-2.187197 1.66654,-2.235973 -0.52066,-0.520655 -1.3273,1.040943 -2.41328,2.126919 -2.41328,2.413279 0,1.134979 1.13243,0.404471 2.93394,-1.892624 z"
       id="path3092"
       transform="scale(0.26458333)" />
    <path
       style="fill:#241c1c;stroke:#ffff00;stroke-width:4.69083"
       d="m 628.17033,112.04512 c -7.85762,-4.01505 -11.68713,-9.32442 -11.68713,-16.203452 0,-7.005996 3.86229,-12.230915 12.09164,-16.357588 9.13781,-4.582229 17.10854,-3.315634 24.90594,3.957699 5.20492,4.855097 5.68926,5.895776 5.68926,12.224334 0,6.020877 -0.61765,7.554697 -4.76539,11.834087 -7.70858,7.95324 -16.56229,9.48708 -26.23432,4.54492 z"
       id="path3094"
       transform="scale(0.26458333)" />
    <path
       style="fill:#241c1c;stroke:#ffff00;stroke-width:4.69083"
       d="m 632.96872,110.30719 c -7.48023,-2.62925 -13.10066,-9.07909 -13.10066,-15.03393 0,-3.594411 1.0966,-5.624775 4.78886,-8.866627 9.34448,-8.204565 19.18608,-8.085894 27.60483,0.332862 6.34151,6.341511 3.99747,17.688135 -4.55231,22.036005 -6.39457,3.25187 -9.0591,3.52874 -14.74072,1.53169 z"
       id="path3096"
       transform="scale(0.26458333)" />
    <path
       style="fill:#241c1c;stroke:#ffff00;stroke-width:4.69083"
       d="m 632.85624,106.91676 c -3.3371,-1.35 -10.23015,-9.141502 -10.23015,-11.563566 0,-5.9238 11.20422,-12.714749 18.66767,-11.314596 5.17339,0.970534 11.6707,7.677212 11.6707,12.046777 0,1.534571 -2.1099,4.900025 -4.68866,7.478785 -4.81035,4.81036 -9.36704,5.8011 -15.41956,3.3526 z"
       id="path3098"
       transform="scale(0.26458333)" />
    <path
       style="fill:#241c1c;stroke:#ffff00;stroke-width:4.69083"
       d="m 633.51104,103.43052 c -1.9771,-1.07461 -4.60039,-3.488673 -5.82954,-5.364588 -2.1563,-3.290938 -2.08686,-3.535246 1.97676,-6.95456 5.64746,-4.75202 12.10381,-4.716981 16.91258,0.09179 1.99957,1.999575 3.63559,4.107241 3.63559,4.683704 0,1.631689 -9.54739,9.614574 -11.42488,9.552714 -0.92168,-0.0304 -3.29341,-0.93444 -5.27051,-2.00905 z"
       id="path3100"
       transform="scale(0.26458333)" />
    <path
       style="fill:#241c1c;stroke:#ffff00;stroke-width:4.69083"
       d="m 368.86548,158.10206 c -19.70567,-10.47161 -10.46614,-35.80916 12.52285,-34.34139 9.76566,0.6235 15.44826,4.50969 18.57812,12.70513 2.25727,5.91056 2.23791,6.31425 -0.58223,12.13986 -5.28887,10.92536 -19.50519,15.349 -30.51874,9.4964 z"
       id="path3104"
       transform="scale(0.26458333)" />
    <path
       style="fill:#241c1c;stroke:#ffff00;stroke-width:4.69083"
       d="m 372.3,206.0796 c -5.91591,-1.72119 -13.00948,-9.53113 -13.9563,-15.36575 -2.20613,-13.59473 13.48112,-25.03089 27.97649,-20.39514 19.00409,6.07768 19.9484,27.40321 1.55376,35.08898 -5.61983,2.34811 -9.27119,2.50564 -15.57395,0.67191 z"
       id="path3106"
       transform="scale(0.26458333)" />
    <path
       style="fill:#241c1c;stroke:#ffff00;stroke-width:4.69083"
       d="m 368.86548,250.49618 c -2.64277,-1.40437 -6.2013,-4.59893 -7.90783,-7.09901 -8.2533,-12.09117 2.01101,-27.56375 18.29349,-27.57588 9.64404,-0.007 15.78897,3.54481 19.75242,11.41765 2.77792,5.51796 3.0128,7.05265 1.69189,11.05503 -1.58262,4.79538 -6.7931,10.49868 -12.06681,13.2081 -4.57623,2.35109 -14.38545,1.85183 -19.76316,-1.00589 z"
       id="path3108"
       transform="scale(0.26458333)" />
    <path
       style="fill:#241c1c;stroke:#ffff00;stroke-width:4.69083"
       d="m 372.44197,297.93302 c -17.31471,-6.31326 -19.22326,-25.11016 -3.40971,-33.58156 14.15986,-7.58551 31.94822,1.47813 31.94822,16.27846 0,12.96653 -15.18369,22.17251 -28.53851,17.3031 z"
       id="path3110"
       transform="scale(0.26458333)" />
    <path
       style="fill:#241c1c;stroke:#ffff00;stroke-width:4.69083"
       d="m 370.67777,293.55939 c -8.62694,-4.25391 -11.55891,-13.93144 -6.34272,-20.93545 1.52197,-2.04361 5.61266,-4.90059 9.09043,-6.34884 6.1095,-2.54417 6.53979,-2.55046 12.73076,-0.18611 10.27973,3.92587 14.32729,13.09854 9.43467,21.38108 -4.69318,7.94493 -15.69598,10.63426 -24.91314,6.08932 z"
       id="path3112"
       transform="scale(0.26458333)" />
    <path
       style="fill:#241c1c;stroke:#ffff00;stroke-width:4.69083"
       d=""
       id="path3114"
       transform="scale(0.26458333)" />
    <path
       style="fill:#241c1c;stroke:#ffff00;stroke-width:4.69083"
       d="m 372.33454,155.95074 c -8.2366,-3.66078 -12.84381,-11.47045 -10.46223,-17.73449 4.65589,-12.24592 23.18256,-15.23523 32.18174,-5.19258 6.66459,7.43735 3.77524,17.62084 -6.29702,22.1938 -6.78757,3.08166 -9.81488,3.22559 -15.42249,0.73327 z"
       id="path3116"
       transform="scale(0.26458333)" />
    <path
       style="fill:#241c1c;stroke:#ffff00;stroke-width:4.69083"
       d="m 376.83242,212.08277 c 1.71538,-0.32985 4.19761,-0.31733 5.51607,0.0278 1.31846,0.34516 -0.085,0.61504 -3.11887,0.59973 -3.03383,-0.0153 -4.11257,-0.29771 -2.3972,-0.62756 z"
       id="path3118"
       transform="scale(0.26458333)" />
    <path
       style="fill:#241c1c;stroke:#ffff00;stroke-width:4.69083"
       d="m 375.09257,203.7735 c -4.7697,-1.19424 -9.9174,-5.65074 -12.28127,-10.63222 -2.02808,-4.27387 -2.05944,-5.32665 -0.2852,-9.57302 5.05448,-12.09706 22.15223,-14.65327 31.44838,-4.70171 5.33854,5.71493 5.21053,11.88568 -0.37863,18.25137 -3.48583,3.97015 -11.94811,8.18473 -15.05574,7.49842 -0.37922,-0.0838 -1.93062,-0.46303 -3.44754,-0.84284 z"
       id="path3120"
       transform="scale(0.26458333)" />
    <path
       style="fill:#241c1c;stroke:#ffff00;stroke-width:4.69083"
       d="m 372.33454,248.34487 c -4.85257,-2.15674 -9.65089,-7.15827 -10.93444,-11.39751 -1.63473,-5.3991 2.62139,-12.66199 9.15876,-15.62906 3.252,-1.47596 7.32892,-2.69719 9.05981,-2.71385 5.55834,-0.0535 12.5727,3.81201 15.4343,8.50559 3.98111,6.52981 3.53701,10.8652 -1.65722,16.17798 -6.97855,7.13783 -13.08194,8.60327 -21.06121,5.05685 z"
       id="path3122"
       transform="scale(0.26458333)" />
    <path
       style="fill:#241c1c;stroke:#ffff00;stroke-width:4.69083"
       d="m 373.54573,291.11329 c -8.50544,-3.80798 -11.22516,-11.9183 -5.693,-16.97676 5.85374,-5.3525 11.51302,-7.43891 15.77867,-5.81711 8.0792,3.07171 12.36935,9.73107 10.10532,15.68592 -2.60377,6.84844 -12.77387,10.42868 -20.19099,7.10795 z"
       id="path3124"
       transform="scale(0.26458333)" />
    <path
       style="fill:#241c1c;stroke:#ffff00;stroke-width:4.69083"
       d="m 373.71356,245.41513 c -12.84124,-6.52267 -11.64469,-18.14119 2.32884,-22.61314 4.13741,-1.32409 5.81107,-1.25345 8.96686,0.37847 11.9284,6.16842 12.09677,16.24931 0.37266,22.31209 -4.93945,2.55428 -6.50778,2.54388 -11.66836,-0.0774 z"
       id="path3126"
       transform="scale(0.26458333)" />
    <path
       style="fill:#241c1c;stroke:#ffff00;stroke-width:4.69083"
       d="m 374.97561,200.06581 c -5.22889,-2.27666 -10.22566,-8.39331 -10.22566,-12.51745 0,-3.67317 6.03384,-10.076 10.56767,-11.21391 5.69847,-1.43023 12.51863,0.73633 16.24003,5.15896 1.94187,2.30778 3.53067,4.79972 3.53067,5.53766 0,3.52036 -4.40233,9.12005 -9.36093,11.90694 -6.37372,3.58223 -5.35905,3.4758 -10.75178,1.1278 z"
       id="path3128"
       transform="scale(0.26458333)" />
    <path
       style="fill:#241c1c;stroke:#ffff00;stroke-width:4.69083"
       d="m 370.26672,160.48521 c -7.2862,-2.9054 -13.79087,-11.60596 -13.79087,-18.44648 0,-8.08401 8.64128,-17.78452 17.2875,-19.40656 2.63735,-0.49477 7.70127,-0.46378 11.25318,0.0689 7.91249,1.18655 14.53297,7.22274 17.01761,15.51572 1.58019,5.27421 1.43947,6.14797 -1.91101,11.86512 -5.80092,9.89854 -19.31408,14.60714 -29.85641,10.40334 z m 15.85799,-6.53658 c 7.15489,-3.25469 9.51521,-6.25033 9.51521,-12.07637 0,-6.95415 -5.33813,-11.75742 -13.99062,-12.58882 -11.10795,-1.06733 -18.27837,4.07015 -18.27837,13.09614 0,4.3429 5.19436,10.27233 11.03213,12.59333 4.75143,1.88908 5.45163,1.82789 11.72165,-1.02428 z"
       id="path3130"
       transform="scale(0.26458333)" />
    <path
       style="fill:#241c1c;stroke:#ffff00;stroke-width:4.69083"
       d=""
       id="path3132"
       transform="scale(0.26458333)" />
    <path
       style="fill:#241c1c;stroke:#ffff00;stroke-width:4.69083"
       d="m 370.92988,206.99929 c -4.70742,-2.05115 -12.35642,-10.18991 -13.77382,-14.65573 -2.52781,-7.96443 3.01992,-17.95767 12.31206,-22.17794 7.36402,-3.34458 13.74042,-3.27145 20.99576,0.2408 11.89871,5.76007 15.62797,19.63023 7.78427,28.95194 -6.93883,8.24634 -18.50461,11.48129 -27.31827,7.64093 z m 21.14398,-16.31098 c 2.15138,-3.62621 2.09196,-3.89362 -1.75806,-7.91217 -7.12927,-7.44135 -18.22758,-6.54614 -22.7114,1.83194 -1.62711,3.04029 -1.56527,3.97473 0.46845,7.07857 1.28866,1.96675 4.29715,4.76428 6.68554,6.21674 4.31678,2.62519 4.37437,2.62276 9.71568,-0.41058 2.95524,-1.67829 6.37514,-4.74032 7.59979,-6.8045 z"
       id="path3134"
       transform="scale(0.26458333)" />
    <path
       style="fill:#241c1c;stroke:#ffff00;stroke-width:4.69083"
       d="m 375.09257,242.23578 c -5.71643,-3.49503 -7.95529,-6.53102 -7.01078,-9.5069 1.02229,-3.22096 7.80577,-7.25963 12.1935,-7.25963 3.48895,0 10.67598,5.58679 10.67598,8.29891 0,3.07815 -2.93331,6.89009 -6.86749,8.92453 -4.90135,2.53458 -4.02556,2.57909 -8.99121,-0.45691 z"
       id="path3136"
       transform="scale(0.26458333)" />
    <path
       style="fill:#241c1c;stroke:#ffff00;stroke-width:4.69083"
       d=""
       id="path3138"
       transform="scale(0.26458333)" />
    <path
       style="fill:#241c1c;stroke:#ffff00;stroke-width:4.69083"
       d="m 371.15689,285.52233 c -2.0069,-1.85994 -3.64891,-3.91328 -3.64891,-4.56299 0,-3.42917 8.6696,-9.98254 13.20613,-9.98254 3.81762,0 10.23716,5.97833 10.23716,9.53355 0,7.93943 -13.06589,11.24773 -19.79438,5.01198 z"
       id="path3140"
       transform="scale(0.26458333)" />
    <path
       style="fill:#241c1c;stroke:#ffff00;stroke-width:4.69083"
       d="m 372.54855,299.30367 c -10.04193,-3.58044 -16.9334,-12.83561 -15.61356,-20.96883 1.61275,-9.93825 12.02731,-18.2904 22.89351,-18.35988 6.71512,-0.043 16.04604,4.89059 19.34487,10.2282 4.18742,6.77539 3.7939,15.94098 -0.92522,21.54932 -3.92756,4.66765 -12.96986,9.52308 -17.63951,9.47188 -1.51692,-0.0166 -5.14396,-0.88094 -8.06009,-1.92069 z m 15.42319,-15.10322 c 2.49406,-2.49406 0.92484,-7.18315 -3.33878,-9.97678 -2.78111,-1.82225 -4.03641,-1.91185 -7.3803,-0.52676 -2.21607,0.91793 -5.09057,2.84173 -6.38776,4.27512 -2.00436,2.21479 -2.0783,2.94383 -0.49233,4.85481 4.0368,4.86404 13.37954,5.59324 17.59917,1.37361 z"
       id="path3142"
       transform="scale(0.26458333)" />
  </g>
</svg>
