<?xml version="1.0" encoding="UTF-8" standalone="no"?>
<!-- Created with Inkscape (http://www.inkscape.org/) -->

<svg
   width="210mm"
   height="297mm"
   viewBox="0 0 210 297"
   version="1.1"
   id="svg5"
   inkscape:version="1.2.2 (732a01da63, 2022-12-09)"
   sodipodi:docname="REMUS.svg"
   xmlns:inkscape="http://www.inkscape.org/namespaces/inkscape"
   xmlns:sodipodi="http://sodipodi.sourceforge.net/DTD/sodipodi-0.dtd"
   xmlns:xlink="http://www.w3.org/1999/xlink"
   xmlns="http://www.w3.org/2000/svg"
   xmlns:svg="http://www.w3.org/2000/svg">
  <sodipodi:namedview
     id="namedview7"
     pagecolor="#ffffff"
     bordercolor="#000000"
     borderopacity="0.25"
     inkscape:showpageshadow="2"
     inkscape:pageopacity="0.0"
     inkscape:pagecheckerboard="0"
     inkscape:deskcolor="#d1d1d1"
     inkscape:document-units="mm"
     showgrid="false"
     inkscape:zoom="0.36257716"
     inkscape:cx="507.47819"
     inkscape:cy="150.31283"
     inkscape:window-width="1920"
     inkscape:window-height="1001"
     inkscape:window-x="-9"
     inkscape:window-y="-9"
     inkscape:window-maximized="1"
     inkscape:current-layer="layer1" />
  <defs
     id="defs2">
    <linearGradient
       id="linearGradient5209"
       inkscape:swatch="solid">
      <stop
         style="stop-color:#000000;stop-opacity:1;"
         offset="0"
         id="stop5207" />
    </linearGradient>
    <rect
       x="48.265588"
       y="328.206"
       width="703.27328"
       height="554.81148"
       id="rect4446" />
    <rect
       x="64.81379"
       y="415.08406"
       width="653.65397"
       height="165.48202"
       id="rect4440" />
    <linearGradient
       id="linearGradient3622"
       inkscape:swatch="solid">
      <stop
         style="stop-color:#000000;stop-opacity:1;"
         offset="0"
         id="stop3620" />
    </linearGradient>
    <linearGradient
       inkscape:collect="always"
       xlink:href="#linearGradient5209"
       id="linearGradient5211"
       x1="-6.4283834"
       y1="107.27027"
       x2="220.23919"
       y2="107.27027"
       gradientUnits="userSpaceOnUse" />
  </defs>
  <g
     inkscape:label="Vrstva 1"
     inkscape:groupmode="layer"
     id="layer1">
    <rect
       style="opacity:0.872549;fill:url(#linearGradient5211);stroke:#000000;stroke-width:4.10001;stroke-linecap:round;stroke-linejoin:round;paint-order:markers stroke fill;fill-opacity:1"
       id="rect5204"
       width="222.56757"
       height="211.62163"
       x="-4.3783784"
       y="1.4594594" />
    <text
       xml:space="preserve"
       transform="scale(0.26458333)"
       id="text4438"
       style="font-size:192px;font-family:'Arial CE';-inkscape-font-specification:'Arial CE';text-align:center;white-space:pre;shape-inside:url(#rect4440);opacity:0.872549;fill:#000000;stroke:#000000;stroke-width:15.4961;stroke-linecap:round;stroke-linejoin:round;paint-order:markers stroke fill"><tspan
         x="64.814453"
         y="753.51126"
         id="tspan5602">R</tspan></text>
    <path
       sodipodi:type="star"
       style="font-size:192px;font-family:'Tempus Sans ITC';-inkscape-font-specification:'Tempus Sans ITC';text-align:center;text-anchor:middle;white-space:pre;shape-inside:url(#rect4446);opacity:0.872549;fill:#ff00ff;stroke:#800080;stroke-width:15.118;stroke-linecap:round;stroke-linejoin:round;paint-order:markers stroke fill"
       id="path4882"
       inkscape:flatsided="false"
       sodipodi:sides="5"
       sodipodi:cx="176.51414"
       sodipodi:cy="946.00555"
       sodipodi:r1="391.29102"
       sodipodi:r2="195.64552"
       sodipodi:arg1="-0.37527082"
       sodipodi:arg2="0.25304771"
       inkscape:rounded="0"
       inkscape:randomized="0"
       d="M 540.57459,802.5878 365.92912,994.98654 425.4134,1247.9291 188.46291,1141.2859 -33.718104,1276.0223 -5.5160919,1017.7144 -202.31578,848.04359 52.06451,795.04377 152.61662,555.44497 281.63028,780.99716 Z"
       transform="matrix(0.26458333,0,0,0.26458333,62.756758,-132.81081)"
       inkscape:transform-center-x="1.9538806"
       inkscape:transform-center-y="-8.009443" />
    <g
       aria-label="Remus"
       transform="matrix(0.26297565,0,0,0.27968342,1.0207719,-5.4871284)"
       id="text4444"
       style="font-size:192px;font-family:'Tempus Sans ITC';-inkscape-font-specification:'Tempus Sans ITC';text-align:center;text-anchor:middle;white-space:pre;shape-inside:url(#rect4446);opacity:0.872549;stroke:#000000;stroke-width:15.4961;stroke-linecap:round;stroke-linejoin:round;paint-order:markers stroke fill">
      <path
         d="m 325.18359,436.06081 q 0.75,0.75 0.75,2.15625 0,2.71875 -1.5,4.03125 0.1875,0.0937 0.1875,0.5625 0,1.5 -4.03125,1.5 h -1.3125 q -0.5625,0 -1.125,0.65625 -0.5625,0.65625 -0.84375,0.65625 -0.0937,0 -0.9375,-0.5625 -0.75,-0.5625 -2.34375,-0.75 l -1.125,-1.125 q -2.0625,0.5625 -4.03125,0.5625 -1.5,0 -4.21875,-0.375 -2.625,-0.375 -3.84375,-0.375 -1.03125,0 -4.40625,0.5625 -3.28125,0.5625 -5.8125,0.5625 l -9.1875,-0.375 q -7.40625,0 -13.40625,1.3125 -0.84375,0.46875 -2.53125,0.75 -1.59375,0.1875 -1.78125,1.5 -0.0937,1.21875 -1.875,1.96875 -0.9375,3.84375 -0.9375,6.9375 0,2.4375 1.40625,9.28125 1.40625,6.84375 3.75,9.75 0.5625,0.65625 8.0625,6 4.78125,3.5625 10.3125,5.4375 5.625,1.78125 12.9375,1.78125 2.90625,0 7.21875,-0.46875 l 3.9375,-0.46875 h 6.09375 q 0.9375,0 3.46875,-1.6875 2.625,-1.6875 5.25,-1.96875 1.125,2.625 1.125,4.59375 0,4.40625 -2.71875,7.6875 -2.625,3.28125 -6.09375,3.28125 l -1.96875,-0.375 -5.90625,0.1875 h -5.0625 q -3.5625,0 -17.53125,-3 -13.96875,-3 -20.625,-7.875 -6.65625,-4.875 -9.75,-12.5625 -3.09375,-7.78125 -3.09375,-15 0,-9.75 3.75,-19.78125 3.75,-10.125 8.53125,-15.65625 4.78125,-5.625 14.53125,-11.625 0.9375,-0.46875 2.8125,-1.875 1.96875,-1.5 3.75,-1.5 l 3.09375,0.1875 q 1.96875,-1.3125 7.03125,-2.15625 5.15625,-0.9375 8.34375,-0.9375 5.71875,0 12.46875,4.21875 6.84375,4.21875 8.25,17.625 0.28125,2.34375 0.75,3.84375 0.5625,1.40625 0.5625,1.59375 0,0.5625 -0.375,1.3125 z m -38.4375,-20.53125 q -0.5625,0.84375 -5.34375,3.09375 -2.34375,1.6875 -4.5,3.84375 -2.15625,2.15625 -4.21875,4.6875 -2.0625,2.4375 -3.65625,4.40625 -1.5,1.96875 -2.34375,3 -0.84375,0.9375 -0.84375,1.6875 0,1.03125 1.3125,1.5 l 1.21875,0.46875 h 6.9375 l 32.625,-1.21875 q 6.28125,0 6.28125,-5.53125 0,-5.8125 -2.34375,-10.125 -2.25,-4.40625 -12,-6.9375 -1.125,0 -3.1875,-0.1875 -2.0625,-0.1875 -3,-0.1875 -0.84375,0 -6.9375,1.5 z"
         id="path4556" />
      <path
         d="m 443.68359,412.81081 q 2.90625,-0.1875 7.59375,-1.21875 l 4.125,-1.03125 q 14.53125,0 21.28125,7.59375 6.75,7.5 6.75,23.625 0,8.53125 -1.59375,18.1875 -1.5,9.65625 -5.625,21.28125 -4.125,11.625 -4.125,14.53125 0,0.375 0.1875,0.9375 -1.03125,3.1875 -1.96875,7.6875 l -5.53125,0.5625 -2.15625,-0.1875 -1.875,0.1875 q -1.59375,0 -4.03125,-1.3125 0.1875,-7.21875 2.53125,-9 -0.65625,-0.9375 -0.65625,-1.40625 v -0.5625 q 1.21875,-1.125 2.53125,-1.125 12.46875,-24 12.46875,-42.28125 0,-8.625 -2.25,-15.75 -2.15625,-7.125 -3.84375,-9.84375 -1.6875,-2.8125 -5.8125,-4.21875 -4.125,-1.40625 -9.375,-1.40625 -4.125,0 -12.1875,3.75 l -12.75,6 q -4.875,2.15625 -4.875,5.53125 0,0.46875 0.46875,1.59375 -1.5,0.28125 -2.34375,1.125 -2.34375,20.25 -2.34375,33.5625 l 0.46875,21 q 0,2.625 -1.21875,4.03125 -5.8125,1.125 -7.5,3.65625 -2.25,-1.40625 -3,-1.40625 -2.53125,-1.03125 -2.53125,-7.125 v -1.3125 q 2.53125,-6.65625 4.03125,-14.25 1.5,-7.6875 1.5,-20.53125 0,-4.59375 -0.65625,-10.03125 l -0.65625,-4.3125 v -1.59375 q 0,-2.53125 -0.5625,-4.96875 -0.5625,-2.53125 -1.96875,-4.96875 -1.40625,-2.4375 -3.75,-4.78125 -2.34375,-2.34375 -4.40625,-3.46875 -2.0625,-1.125 -5.8125,-1.125 -2.25,0 -3.9375,0.375 -1.875,0.375 -3.375,1.3125 -1.875,1.21875 -5.90625,2.625 -4.40625,1.59375 -7.125,3 -3.09375,1.6875 -5.15625,3.65625 -2.0625,2.0625 -3.28125,4.875 -1.21875,2.8125 -1.78125,6.75 -0.5625,3.84375 -0.5625,9.46875 l 1.125,26.4375 q 0,8.625 1.96875,12.28125 -1.40625,4.3125 -4.125,6 -2.625,1.6875 -4.125,1.6875 h -0.375 q -1.21875,0 -2.15625,-1.125 l -1.125,0.75 q -0.84375,-1.125 -1.125,-2.71875 0.9375,-1.3125 0.9375,-4.40625 0,-1.21875 -0.28125,-4.21875 -0.28125,-3 -0.28125,-4.59375 v -1.125 q 0,-0.28125 0.65625,-10.40625 0.65625,-10.21875 0.65625,-28.03125 0,-2.25 -3.65625,-4.21875 -0.5625,-1.40625 -0.5625,-2.0625 0,-0.65625 0.5625,-2.34375 l -1.125,-0.5625 q 1.03125,-1.5 2.625,-3.09375 1.59375,-1.6875 1.96875,-2.15625 0.375,-0.5625 0.375,-2.0625 0,-1.6875 -1.59375,-4.59375 -1.5,-3 -1.21875,-3.9375 0.28125,-1.03125 0.28125,-1.40625 0,-0.5625 1.3125,-2.625 1.3125,-2.15625 2.34375,-4.125 h 1.78125 q 0.5625,-0.5625 1.5,-1.78125 0.9375,-1.3125 1.96875,-1.3125 2.15625,0 4.125,2.15625 1.96875,2.15625 1.96875,4.96875 0,1.3125 -0.1875,2.15625 -1.5,2.4375 -1.5,4.40625 0,4.21875 1.6875,4.21875 0.1875,0 2.90625,-1.5 2.71875,-1.5 6.9375,-3.09375 4.3125,-1.6875 7.6875,-3.28125 3.46875,-1.59375 3.84375,-1.59375 l 3,0.375 q 0.75,0 1.21875,-0.1875 2.25,-1.6875 8.25,-1.6875 4.125,0 8.90625,2.53125 4.78125,2.4375 6.75,7.21875 0.84375,2.0625 2.34375,3.09375 1.59375,0.9375 2.71875,0.9375 0.375,0 0.375,-0.375 0,-0.1875 -0.1875,-0.375 0.75,-0.28125 3.65625,-2.34375 2.90625,-2.0625 6.28125,-2.625 1.3125,-3 11.53125,-4.96875 z"
         id="path4558" />
      <path
         d="m 578.30859,410.18581 q 1.59375,-1.21875 4.59375,-1.875 l 5.71875,-1.21875 h 0.65625 q 1.875,0 1.875,4.78125 l -3.09375,10.125 q -1.5,5.0625 -2.15625,9.65625 -0.65625,4.59375 -0.65625,8.8125 0,4.3125 0.65625,9.1875 0.65625,4.78125 3.375,8.25 0.1875,0.46875 0.1875,1.21875 0,0.9375 -1.59375,3.28125 -1.5,2.25 -1.5,6.09375 0,2.0625 0.75,6.75 0.84375,4.59375 0.84375,5.71875 0.0937,1.03125 1.40625,2.0625 1.40625,0.9375 1.40625,1.40625 0,0.75 -1.5,1.3125 -0.375,4.59375 -0.375,5.625 0,3.46875 0.9375,3.84375 -6.46875,2.625 -9.65625,2.625 -3.84375,0 -3.84375,-3.1875 0,-0.9375 0.65625,-2.71875 -0.28125,-0.5625 -0.28125,-1.5 0,-1.78125 0.46875,-2.8125 0.5625,-1.03125 0.5625,-2.0625 0,-1.875 -0.5625,-5.25 -0.5625,-3.375 -3.46875,-3.375 -2.15625,0 -8.0625,5.34375 -8.90625,7.875 -15.75,11.34375 -2.90625,1.03125 -3.84375,1.96875 -13.3125,2.0625 -13.875,2.0625 -2.34375,0 -6.09375,-2.625 -3.65625,-2.71875 -6,-5.34375 -2.25,-2.625 -4.03125,-8.0625 -1.6875,-5.53125 -1.6875,-12.375 0,-3 2.34375,-20.71875 2.34375,-17.71875 3.65625,-25.3125 1.3125,-7.6875 1.3125,-8.0625 0,-0.75 -0.65625,-2.34375 l -0.75,-1.5 v -0.375 q 0,-0.65625 0.9375,-0.9375 0.9375,-0.28125 3.5625,-1.59375 2.71875,-1.3125 4.21875,-1.3125 0.65625,0 2.625,0.65625 2.0625,0.65625 3.46875,0.65625 h 0.5625 q 1.78125,1.40625 2.34375,2.90625 l -1.96875,2.25 q -5.34375,4.875 -6.84375,14.4375 l -3.09375,20.15625 q -1.78125,10.5 -1.78125,15 0,13.125 5.0625,19.21875 5.15625,6.09375 10.125,6.09375 l 1.59375,-0.1875 2.8125,0.1875 q 1.40625,0 5.53125,-2.0625 4.125,-2.15625 12.09375,-7.59375 8.0625,-5.53125 9.75,-8.0625 1.78125,-2.625 3.09375,-6.5625 1.3125,-4.03125 1.96875,-9.1875 0.65625,-5.15625 0.65625,-11.4375 0,-15.75 -0.75,-21.1875 -0.65625,-5.53125 -2.34375,-6.65625 -1.21875,-0.9375 -1.21875,-4.96875 1.5,-0.5625 2.0625,-0.9375 0.65625,-0.46875 1.21875,-0.46875 1.03125,0 2.34375,0.84375 z"
         id="path4560" />
      <text
         xml:space="preserve"
         style="font-style:normal;font-variant:normal;font-weight:normal;font-stretch:normal;font-size:187.315px;font-family:'Tempus Sans ITC';-inkscape-font-specification:'Tempus Sans ITC';text-align:center;text-anchor:middle;opacity:0.872549;fill:#000000;stroke:#000000;stroke-width:15.118;stroke-linecap:round;stroke-linejoin:round;paint-order:markers stroke fill"
         x="617.12317"
         y="492.4567"
         id="text4616"
         transform="scale(1.0312776,0.96967103)"><tspan
           sodipodi:role="line"
           id="tspan4614"
           style="stroke-width:15.1179"
           x="617.12317"
           y="492.4567">S</tspan></text>
      <text
         xml:space="preserve"
         style="font-style:normal;font-variant:normal;font-weight:normal;font-stretch:normal;font-size:187.315px;font-family:'Tempus Sans ITC';-inkscape-font-specification:'Tempus Sans ITC';text-align:center;text-anchor:middle;opacity:0.872549;fill:#1a1a1a;stroke:#1a1a1a;stroke-width:15.118;stroke-linecap:round;stroke-linejoin:round;paint-order:markers stroke fill"
         x="189.96901"
         y="460.84058"
         id="text4620"
         transform="scale(1.0312776,0.96967103)"><tspan
           sodipodi:role="line"
           id="tspan4618"
           style="stroke-width:15.1179;stroke:#1a1a1a;fill:#1a1a1a"
           x="189.96901"
           y="460.84058">R</tspan></text>
    </g>
    <path
       style="opacity:0.872549;fill:#000000;stroke:#800080;stroke-width:1.99898;stroke-linecap:round;stroke-linejoin:round;paint-order:markers stroke fill"
       d="m 171.00002,115.27953 c -0.0375,-0.0606 -0.42021,-0.23864 -0.85052,-0.39554 -0.59167,-0.21573 -0.85204,-0.39427 -1.0682,-0.73249 -0.21688,-0.33933 -0.59704,-0.59906 -1.57583,-1.07662 -2.64367,-1.28988 -4.90683,-2.9289 -5.95272,-4.31107 -2.14056,-2.8288 -2.44659,-6.39634 -0.83101,-9.687346 0.71763,-1.461844 1.69077,-2.711244 2.74244,-3.520995 1.1923,-0.918031 2.80994,-1.824387 3.83926,-2.151121 0.53681,-0.1704 1.15017,-0.401394 1.36302,-0.513324 0.21285,-0.111926 0.49046,-0.203861 0.61691,-0.204298 0.12645,-5.29e-4 0.67792,-0.16992 1.22549,-0.376629 1.44292,-0.544703 1.49045,-0.552579 2.10876,-0.349377 0.3101,0.101907 1.23138,0.212151 2.0473,0.244986 1.63267,0.0657 2.14966,0.223538 2.90529,0.886984 0.67579,0.59336 0.996,1.307986 1.06045,2.366724 0.15255,2.505917 -1.62521,4.748866 -3.4871,4.399576 -0.24376,-0.04573 -0.79686,-0.388805 -1.29964,-0.806132 l -0.87528,-0.726522 -1.13384,0.08559 c -3.30376,0.249401 -5.2768,1.679434 -5.5161,3.997984 -0.0906,0.87765 0.19901,1.45551 1.20542,2.40536 1.4223,1.34238 3.69522,2.74924 4.66823,2.88948 1.016,0.14643 1.62296,0.54256 3.68027,2.40188 0.10824,0.0978 -4.51099,5.28317 -4.70638,5.28317 -0.0539,0 -0.12873,-0.0496 -0.16622,-0.11027 z"
       id="path5135" />
    <path
       style="opacity:0.872549;fill:#000000;stroke:#800080;stroke-width:7.5552;stroke-linecap:round;stroke-linejoin:round;paint-order:markers stroke fill"
       d="m 605.90932,498.84117 c -2.54337,-0.95713 -5.34029,-3.16939 -4.90752,-3.88165 0.19305,-0.31771 4.58868,-5.23064 9.76808,-10.9176 10.10266,-11.09272 9.1825,-10.41068 15.00834,-11.1246 4.36736,-0.5352 8.20557,-1.71277 12.78786,-3.92334 5.22301,-2.51966 7.08054,-4.21061 9.97553,-9.08093 1.99859,-3.36229 2.11007,-3.75276 2.26688,-7.93981 0.13268,-3.54291 -0.0306,-4.91805 -0.83517,-7.03563 -0.55005,-1.4476 -0.85606,-2.87216 -0.68003,-3.16569 0.66548,-1.10967 17.83179,-19.79214 18.18592,-19.79214 0.50546,0 3.00599,3.96821 4.85556,7.70554 3.34386,6.75674 4.23219,14.95101 2.70596,24.96072 -2.48459,16.29516 -10.4582,26.43994 -27.74957,35.30563 -6.73969,3.45559 -14.9087,6.62419 -17.07793,6.62419 -0.95311,0 -3.4345,0.5712 -5.5142,1.26933 -3.12056,1.04753 -4.93271,1.3056 -10.37083,1.47687 -4.90859,0.1546 -7.05621,0.0319 -8.41888,-0.48089 z"
       id="path5137"
       transform="scale(0.26458333)" />
    <path
       style="opacity:0.872549;fill:#000000;stroke:#800080;stroke-width:10.6847;stroke-linecap:round;stroke-linejoin:round;paint-order:markers stroke fill"
       d="m 158.60334,460.81164 c -3.26614,-2.22368 -5.28804,-5.43053 -6.31378,-10.01403 -0.7568,-3.38172 -0.71166,-4.23225 0.37285,-7.02466 3.14713,-8.10329 3.23422,-9.42393 3.46059,-52.47693 0.13087,-24.88932 -0.0734,-44.68696 -0.51946,-50.33411 -1.06199,-13.44634 -0.9297,-16.66642 0.79969,-19.46464 1.67115,-2.70397 3.43644,-3.66842 7.95467,-4.34597 1.75595,-0.26332 3.19264,-0.77213 3.19264,-1.13068 0,-0.35855 0.23271,-0.50871 0.51713,-0.33368 0.28443,0.17502 3.30964,0.0292 6.72271,-0.32407 4.09414,-0.42376 8.78622,-0.38967 13.79017,0.10019 30.83239,3.01835 48.31219,19.1476 47.06173,43.42559 -0.37484,7.27769 -1.91292,12.45055 -5.51081,18.53388 -4.1082,6.94617 -12.50932,14.33372 -21.36386,18.78637 -1.79093,0.9006 -3.26476,1.79553 -3.27517,1.98873 -0.0104,0.1932 2.94501,2.21002 6.56762,4.4818 3.6226,2.27179 8.51049,5.55679 10.86197,7.29999 2.35149,1.74321 5.36041,3.72609 6.68649,4.4064 1.32608,0.68031 3.65217,2.07715 5.16909,3.10411 1.51692,1.02695 3.60561,2.07378 4.64154,2.32628 1.03592,0.2525 2.8976,1.33399 4.13705,2.4033 1.23945,1.06932 4.27036,3.28483 6.73535,4.92334 2.46499,1.63852 4.59438,3.06953 4.73198,3.18002 0.1376,0.11049 -0.84499,2.77739 -2.18352,5.92645 -2.86116,6.73124 -4.99251,13.50362 -5.66859,18.01202 -0.2662,1.77512 -0.77445,3.22749 -1.12945,3.22749 -1.52492,0 -4.62879,-2.22912 -8.16157,-5.86142 -5.91568,-6.08233 -11.0394,-9.87573 -25.16706,-18.6327 -7.20536,-4.46621 -17.20366,-10.86618 -22.21843,-14.22216 -5.01478,-3.35597 -9.31279,-6.10177 -9.55114,-6.10177 -0.23834,0 -0.17692,7.98968 0.1365,17.75484 0.744,23.18021 0.82697,21.80529 -1.51569,25.11719 -2.79963,3.95795 -5.15249,5.51654 -8.66215,5.73804 -1.65392,0.10438 -4.55853,0.40867 -6.45468,0.67621 -2.96577,0.41845 -3.78248,0.25839 -5.84441,-1.14542 z m 27.05548,-75.97936 c 10.68181,-4.02062 17.33418,-8.45816 19.97337,-13.32346 3.71123,-6.84159 4.09697,-17.68315 0.88275,-24.81065 -2.75579,-6.11096 -9.76627,-9.95726 -19.83054,-10.88004 l -5.34369,-0.48995 v 7.87633 c 0,4.33198 -0.20489,15.83877 -0.4553,25.57064 -0.25042,9.73187 -0.2575,17.69431 -0.0157,17.69431 0.24176,0 2.39688,-0.73673 4.78915,-1.63718 z"
       id="path5139"
       transform="scale(0.26458333)" />
  </g>
</svg>
