<?xml version="1.0" encoding="utf-8"?>
<!-- Generator: Adobe Illustrator 21.0.2, SVG Export Plug-In . SVG Version: 6.00 Build 0)  -->
<svg version="1.1" id="Layer_1" xmlns="http://www.w3.org/2000/svg" xmlns:xlink="http://www.w3.org/1999/xlink" x="0px" y="0px"
	 viewBox="0 0 964.8 37" style="enable-background:new 0 0 964.8 37;" xml:space="preserve">
<style type="text/css">
	.st0{fill:#003299;}
</style>
<g>
	<rect x="692.5" class="st0" width="2.4" height="37"/>
	<g>
		<path class="st0" d="M24.3,30.6H7.5V7.9H24v4.2H13.1v4.7h10.4V21H13.1v5.5h11.1L24.3,30.6L24.3,30.6z"/>
		<path class="st0" d="M55.7,7.9v12.9c0,7.5-5.2,10.2-11.4,10.2c-6.6,0-11.4-3-11.4-10.1v-13h5.7v13.1c0,3.3,2.4,5.2,5.6,5.2
			c3,0,5.8-1.6,5.8-5.6V7.9H55.7z"/>
		<path class="st0" d="M75.3,7.9c4.7,0,7.5,3.1,7.5,6.6c0,2.5-1.3,4.4-3.9,5.6c2.4,1.2,3,4,6.2,10.6h-6.2c-2.4-4.9-3.3-9.3-6.4-9.3
			h-1.6v9.3h-5.7V7.9H75.3z M70.8,17.2h3c1.6,0,3.1-0.7,3.1-2.6c0-1.7-1.1-2.6-3.3-2.6h-2.8V17.2z"/>
		<path class="st0" d="M104.4,30.9c-8.3,0-13.1-5.9-13.1-11.7c0-5.5,4.5-11.7,13.1-11.7c8.6,0,13,6.2,13,11.7
			C117.4,25.1,112.5,30.9,104.4,30.9z M104.4,12.3c-4.3,0-7.2,2.8-7.2,7c0,4.2,2.8,6.9,7.2,6.9s7.2-2.8,7.2-6.9
			C111.6,15,108.7,12.3,104.4,12.3z M104.2,5.9h-2.4l2.4-5.4h5.5L104.2,5.9z"/>
		<path class="st0" d="M136.4,7.9c5.2,0,7.5,3.7,7.5,6.8c0,3.2-2.3,6.9-7.5,6.9h-4.5v9.1h-5.7V7.9H136.4z M131.9,17.3h2.6
			c2.6,0,3.5-0.9,3.5-2.6c0-2-1.1-2.6-4.2-2.6h-2L131.9,17.3L131.9,17.3z"/>
		<path class="st0" d="M167.7,13.8c-3.3-1.5-5.3-2-7.2-2c-2,0-3.3,0.7-3.3,1.9c0,3.5,11.6,2.5,11.6,10.4c0,4.4-3.7,6.9-8.7,6.9
			c-4,0-6-1-8.2-2.2v-4.9c3.3,2.2,5.3,2.9,7.8,2.9c2.2,0,3.3-0.7,3.3-2.1c0-3.7-11.6-2.4-11.6-10.6c0-3.9,3.4-6.6,8.7-6.6
			c2.5,0,4.8,0.5,7.7,1.8L167.7,13.8L167.7,13.8z"/>
		<path class="st0" d="M188.8,18.5l10,12.1h-7.1l-9-10.7v10.7H177V7.9h5.7v10.3h0.1L190,7.9h6.2L188.8,18.5z"/>
		<path class="st0" d="M229.1,30.6H223l-1.9-4.5h-10.2l-1.7,4.5h-6l9.2-22.8h6.6L229.1,30.6z M215.7,13.3l-3.3,8.9h7L215.7,13.3z"/>
		<path class="st0" d="M271.2,28.7c-3.2,1.6-5.6,2.2-8.9,2.2c-8.9,0-13.3-5.8-13.3-11.6c0-6.1,4.9-11.7,13.7-11.7c3.2,0,6,0.7,8.3,2
			v5.1c-2.5-1.4-5-2.4-7.9-2.4c-4.8,0-8.3,2.8-8.3,6.9s3.4,7,8.1,7c3,0,4.9-0.9,8.3-2.5L271.2,28.7L271.2,28.7z"/>
		<path class="st0" d="M297.1,30.6h-16.8V7.9h16.5v4.2h-10.9v4.7h10.4V21h-10.4v5.5H297L297.1,30.6L297.1,30.6z"/>
		<path class="st0" d="M329,30.6h-4.7l-12.6-14.6v14.6H306V7.9h5.2l12.1,14v-14h5.7L329,30.6L329,30.6z"/>
		<path class="st0" d="M359.2,12h-8.3v18.6h-5.7V12H337V7.8h22.2L359.2,12L359.2,12z"/>
		<path class="st0" d="M377.3,7.9c4.7,0,7.5,3.1,7.5,6.6c0,2.5-1.3,4.4-3.9,5.6c2.3,1.2,3,4,6.2,10.6h-6.2c-2.4-4.9-3.3-9.3-6.4-9.3
			h-1.6v9.3h-5.7V7.9H377.3z M372.9,17.2h3c1.6,0,3.1-0.7,3.1-2.6c0-1.7-1.1-2.6-3.3-2.6h-2.8V17.2z"/>
		<path class="st0" d="M417.7,30.6h-6.1l-1.9-4.5h-10.2l-1.7,4.5h-6L401,7.9h6.6L417.7,30.6z M404.4,13.3l-3.3,8.9h7L404.4,13.3z
			 M404,5.9h-2.5l2.5-5.4h5.5L404,5.9z"/>
		<path class="st0" d="M442.2,30.6h-17.3V7.9h5.7v18.6h11.7L442.2,30.6L442.2,30.6z"/>
		<path class="st0" d="M473,30.6h-4.7l-12.6-14.6v14.6h-5.7V7.9h5.2l12.1,14v-14h5.7L473,30.6L473,30.6z"/>
		<path class="st0" d="M506,30.6h-6.1l-1.9-4.5h-10.2l-1.7,4.5h-6l9.2-22.8h6.6L506,30.6z M492.7,13.3l-3.3,8.9h7L492.7,13.3z"/>
		<path class="st0" d="M536.8,7.9c5.4,0,7.5,3.2,7.5,5.7c0,1.9-1.2,3.6-3.1,4.5c3.3,0.8,4.8,3.2,4.8,5.8c0,2.6-1.4,6.7-8.1,6.7
			h-11.1V7.9H536.8z M532.7,16.9h3c2.1,0,2.9-1.3,2.9-2.5c0-1.2-0.8-2.4-2.9-2.4h-3V16.9z M532.7,26.4h3.2c3.1,0,4.3-0.8,4.3-2.8
			c0-1.7-1.5-2.6-3.5-2.6h-4V26.4z"/>
		<path class="st0" d="M578.2,30.6h-6.1l-1.9-4.5H560l-1.7,4.5h-6l9.2-22.8h6.6L578.2,30.6z M564.9,13.3l-3.3,8.9h7L564.9,13.3z"/>
		<path class="st0" d="M608.4,30.6h-4.7l-12.6-14.6v14.6h-5.7V7.9h5.2l12.1,14v-14h5.7V30.6z"/>
		<path class="st0" d="M629.8,18.5l10,12.1h-7l-9-10.7v10.7H618V7.9h5.7v10.3h0.1L631,7.9h6.2L629.8,18.5z"/>
		<path class="st0" d="M670,30.6h-6.1l-1.9-4.5h-10.2l-1.7,4.5h-6l9.2-22.8h6.6L670,30.6z M656.7,13.3l-3.3,8.9h7L656.7,13.3z"/>
	</g>
	<g>
		<path class="st0" d="M729.2,10.7h-9.6v6.9h9.4v2.9h-9.4v7.1h10v2.9h-13.2V7.7h12.9L729.2,10.7L729.2,10.7z"/>
		<path class="st0" d="M757.3,21.5c0,5.6-3.3,9.3-10.1,9.3c-4.8,0-9.5-2.7-9.5-8.9V7.7h3.3v13.5c0,2.6,0.3,3.7,1.4,4.7
			c1.3,1.3,2.9,2,4.9,2c2.5,0,4.3-0.8,5.4-1.8c1.2-1.2,1.4-2.8,1.4-4.9V7.7h3.3L757.3,21.5L757.3,21.5z"/>
		<path class="st0" d="M773,7.7c4.6,0,7.5,2.4,7.5,6.4c0,2.6-1.4,4.6-3.8,5.6c2.1,1.4,3.3,3.5,5.1,6.3c0.9,1.6,1.6,2.4,3.1,4.5h-3.9
			l-3-4.7c-3-4.7-4.4-5.2-6-5.2h-1.4v9.9h-3.3V7.7H773z M770.5,17.7h2.1c3.5,0,4.5-1.8,4.5-3.7c-0.1-2.2-1.3-3.5-4.5-3.5h-2.1V17.7z
			"/>
		<path class="st0" d="M802.5,7.5c7.5,0,12.3,5.4,12.3,11.7c0,6.2-4.6,11.7-12.3,11.7c-7.5,0-12.1-5.5-12.1-11.7
			C790.3,12.8,795.1,7.5,802.5,7.5z M802.5,27.9c5.1,0,8.9-3.7,8.9-8.7c0-5-3.8-8.7-8.9-8.7c-5.1,0-8.9,3.7-8.9,8.7
			C793.7,24.1,797.4,27.9,802.5,27.9z"/>
		<path class="st0" d="M834.6,12.7c-2-1.8-3.8-2.4-5.4-2.4c-2.1,0-3.6,1.1-3.6,2.7c0,4.4,9.8,4.3,9.8,11.6c0,3.6-2.7,6.2-6.4,6.2
			c-2.5,0-4.5-0.7-6.4-2.1v-4.1c1.7,2.2,3.8,3.3,6,3.3c2.5,0,3.7-1.6,3.7-2.8c0-4.7-9.8-5.2-9.8-11.5c0-3.7,2.7-6.1,6.9-6.1
			c1.8,0,3.5,0.5,5.1,1.6L834.6,12.7L834.6,12.7z"/>
		<path class="st0" d="M857.8,7.7h3.9l-8.5,10.8v12.1H850V18.5l-8.5-10.7h3.9l6.1,7.9L857.8,7.7z"/>
		<path class="st0" d="M879.6,12.7c-2-1.8-3.8-2.4-5.4-2.4c-2.1,0-3.6,1.1-3.6,2.7c0,4.4,9.8,4.3,9.8,11.6c0,3.6-2.7,6.2-6.4,6.2
			c-2.4,0-4.5-0.7-6.4-2.1v-4.1c1.7,2.2,3.8,3.3,6,3.3c2.5,0,3.7-1.6,3.7-2.8c0-4.7-9.8-5.2-9.8-11.5c0-3.7,2.7-6.1,6.9-6.1
			c1.8,0,3.5,0.5,5.1,1.6L879.6,12.7L879.6,12.7z"/>
		<path class="st0" d="M906.3,10.7h-7.9v19.9h-3.3V10.7h-7.9V7.8h19L906.3,10.7L906.3,10.7z"/>
		<path class="st0" d="M927.1,10.7h-9.7v6.9h9.4v2.9h-9.4v7.1h10v2.9h-13.2V7.7h12.9L927.1,10.7L927.1,10.7z M924.5,1.4l-3.7,4.9
			h-1.8l2.2-4.9H924.5z"/>
		<path class="st0" d="M957.4,30.6h-3.3V12.8H954l-7,8.8h-0.5l-7-8.8h-0.1v17.8h-3.3V7.7h3l7.5,9.4l7.6-9.4h3L957.4,30.6L957.4,30.6
			z"/>
	</g>
</g>
</svg>
